STARTFONT 2.3
FONT -FontForge-Monofett-Book-R-Normal--9-90-72-72-P-48-ISO10646-1
SIZE 9 72 72  4
FONTBOUNDINGBOX 6 12 0 -2
COMMENT "Generated by fontforge, http://fontforge.sourceforge.net"
COMMENT "Copyright (c) 2011 by vernon adams. All rights reserved."
STARTPROPERTIES 41
FOUNDRY "FontForge"
FAMILY_NAME "Monofett"
WEIGHT_NAME "Book"
SLANT "R"
SETWIDTH_NAME "Normal"
ADD_STYLE_NAME ""
PIXEL_SIZE 9
POINT_SIZE 90
RESOLUTION_X 72
RESOLUTION_Y 72
SPACING "P"
AVERAGE_WIDTH 48
CHARSET_REGISTRY "ISO10646"
CHARSET_ENCODING "1"
FONTNAME_REGISTRY ""
CHARSET_COLLECTIONS "ISO8859-2 ISO8859-9 ISO8859-4 ISO10646-1"
BITS_PER_PIXEL 4
FONT_NAME "Monofett"
FACE_NAME "Monofett"
COPYRIGHT "Copyright (c) 2011 by vernon adams. All rights reserved."
FONT_VERSION "1.000"
FONT_ASCENT 7
FONT_DESCENT 2
UNDERLINE_POSITION -1
UNDERLINE_THICKNESS 1
X_HEIGHT 5
CAP_HEIGHT 5
RAW_ASCENT 799
RAW_DESCENT 200
NORM_SPACE 1
RELATIVE_WEIGHT 40
RELATIVE_SETWIDTH 50
SUPERSCRIPT_X 0
SUPERSCRIPT_Y 4
SUPERSCRIPT_SIZE 5
SUBSCRIPT_X 0
SUBSCRIPT_Y 1
SUBSCRIPT_SIZE 5
FIGURE_WIDTH 5
AVG_LOWERCASE_WIDTH 50
AVG_UPPERCASE_WIDTH 50
ENDPROPERTIES
CHARS 409
STARTCHAR uni000D
ENCODING 13
SWIDTH 144 0
DWIDTH 1 0
BBX 1 1 0 0
BITMAP
00
ENDCHAR
STARTCHAR space
ENCODING 32
SWIDTH 144 0
DWIDTH 1 0
BBX 1 1 0 0
BITMAP
00
ENDCHAR
STARTCHAR exclam
ENCODING 33
SWIDTH 424 0
DWIDTH 4 0
BBX 4 6 0 0
BITMAP
6BB4
FACC
FBDD
FDED
FFFC
6ED4
ENDCHAR
STARTCHAR quotedbl
ENCODING 34
SWIDTH 424 0
DWIDTH 4 0
BBX 4 6 0 0
BITMAP
6A94
FCCC
FFFD
FFFD
FFFC
6ED4
ENDCHAR
STARTCHAR numbersign
ENCODING 35
SWIDTH 482 0
DWIDTH 4 0
BBX 5 6 0 0
BITMAP
6DDA00
F74E50
F76F50
F87F50
FFFF50
6EFA00
ENDCHAR
STARTCHAR dollar
ENCODING 36
SWIDTH 578 0
DWIDTH 5 0
BBX 6 6 0 0
BITMAP
6D9C90
F88AF3
FB57F3
F956F3
FFCFF3
6EFE90
ENDCHAR
STARTCHAR percent
ENCODING 37
SWIDTH 578 0
DWIDTH 5 0
BBX 6 6 0 0
BITMAP
69DD90
C46EF3
FE88B3
FFA7A3
FFFFF3
6EFE90
ENDCHAR
STARTCHAR ampersand
ENCODING 38
SWIDTH 578 0
DWIDTH 5 0
BBX 6 6 0 0
BITMAP
6C8B90
FACBF3
FB85E3
FB76F3
FFFFF3
6EFE90
ENDCHAR
STARTCHAR quotesingle
ENCODING 39
SWIDTH 424 0
DWIDTH 4 0
BBX 4 6 0 0
BITMAP
6BC4
FDEC
FFFD
FFFD
FFFC
6ED4
ENDCHAR
STARTCHAR parenleft
ENCODING 40
SWIDTH 483 0
DWIDTH 4 0
BBX 5 6 0 0
BITMAP
6A9A00
F8FF50
F8FF60
F8FF60
FC9F50
6EFA00
ENDCHAR
STARTCHAR parenright
ENCODING 41
SWIDTH 483 0
DWIDTH 4 0
BBX 5 6 0 0
BITMAP
6B9A00
FF8F50
FF8F60
FF8F60
FC9F50
6EFA00
ENDCHAR
STARTCHAR asterisk
ENCODING 42
SWIDTH 428 0
DWIDTH 4 0
BBX 4 6 0 0
BITMAP
6A95
F53B
FCCD
FFFD
FFFC
6ED5
ENDCHAR
STARTCHAR plus
ENCODING 43
SWIDTH 428 0
DWIDTH 4 0
BBX 4 6 0 0
BITMAP
6BC5
E66C
FDDD
FFFD
FFFC
6ED5
ENDCHAR
STARTCHAR comma
ENCODING 44
SWIDTH 428 0
DWIDTH 4 0
BBX 4 6 0 0
BITMAP
6EE5
FFFC
FFFD
FCDD
FEEC
6ED5
ENDCHAR
STARTCHAR hyphen
ENCODING 45
SWIDTH 428 0
DWIDTH 4 0
BBX 4 6 0 0
BITMAP
6EE5
F8AC
FFFD
FFFD
FFFC
6ED5
ENDCHAR
STARTCHAR period
ENCODING 46
SWIDTH 428 0
DWIDTH 4 0
BBX 4 6 0 0
BITMAP
6EE5
FFFC
FFFD
FCDD
FFFC
6ED5
ENDCHAR
STARTCHAR slash
ENCODING 47
SWIDTH 428 0
DWIDTH 4 0
BBX 4 6 0 0
BITMAP
6EA5
FCBC
FADD
F8FD
FEFC
6ED5
ENDCHAR
STARTCHAR zero
ENCODING 48
SWIDTH 578 0
DWIDTH 5 0
BBX 6 6 0 0
BITMAP
6A8780
F8FAD3
F8FAD3
F886E3
FFFFF3
6EFE90
ENDCHAR
STARTCHAR one
ENCODING 49
SWIDTH 578 0
DWIDTH 5 0
BBX 6 6 0 0
BITMAP
6E7E90
FF8FF3
FF8FF3
FF8FF3
FFFFF3
6EFE90
ENDCHAR
STARTCHAR two
ENCODING 50
SWIDTH 578 0
DWIDTH 5 0
BBX 6 6 0 0
BITMAP
6A8790
FEF8E3
F989F3
F889F3
FFFFF3
6EFE90
ENDCHAR
STARTCHAR three
ENCODING 51
SWIDTH 578 0
DWIDTH 5 0
BBX 6 6 0 0
BITMAP
698890
FEF8F3
FF95F3
F885F3
FFFFF3
6EFE90
ENDCHAR
STARTCHAR four
ENCODING 52
SWIDTH 578 0
DWIDTH 5 0
BBX 6 6 0 0
BITMAP
6AFA90
F9E8F3
F9A5E3
FFD7E3
FFFFF3
6EFE90
ENDCHAR
STARTCHAR five
ENCODING 53
SWIDTH 578 0
DWIDTH 5 0
BBX 6 6 0 0
BITMAP
6A8890
F8CDF3
FCB7E3
FB86E3
FFFFF3
6EFE90
ENDCHAR
STARTCHAR six
ENCODING 54
SWIDTH 578 0
DWIDTH 5 0
BBX 6 6 0 0
BITMAP
6A7890
F8CCF3
F8B8C3
F986D3
FFFFF3
6EFE90
ENDCHAR
STARTCHAR seven
ENCODING 55
SWIDTH 578 0
DWIDTH 5 0
BBX 6 6 0 0
BITMAP
6D8890
FFE8F3
FF9DF3
FF7FF3
FFFFF3
6EFE90
ENDCHAR
STARTCHAR eight
ENCODING 56
SWIDTH 578 0
DWIDTH 5 0
BBX 6 6 0 0
BITMAP
6A8780
F8E9D3
F796D3
F886E3
FFFFF3
6EFE90
ENDCHAR
STARTCHAR nine
ENCODING 57
SWIDTH 578 0
DWIDTH 5 0
BBX 6 6 0 0
BITMAP
698790
F8F9E3
FB85E3
FC75E3
FFFFF3
6EFE90
ENDCHAR
STARTCHAR colon
ENCODING 58
SWIDTH 428 0
DWIDTH 4 0
BBX 4 6 0 0
BITMAP
6EE5
FFFC
FCDD
FCDD
FFFC
6ED5
ENDCHAR
STARTCHAR semicolon
ENCODING 59
SWIDTH 428 0
DWIDTH 4 0
BBX 4 6 0 0
BITMAP
6EE5
FFFC
FCDD
FCDD
FEEC
6ED5
ENDCHAR
STARTCHAR less
ENCODING 60
SWIDTH 482 0
DWIDTH 4 0
BBX 5 7 0 0
BITMAP
4BC700
EFEF40
FDBF50
F9FF50
FEBF50
CFEF20
178300
ENDCHAR
STARTCHAR equal
ENCODING 61
SWIDTH 482 0
DWIDTH 4 0
BBX 5 7 0 0
BITMAP
4BC700
EFFF40
FDCF50
FCAE50
FFFF50
CFFF20
178300
ENDCHAR
STARTCHAR greater
ENCODING 62
SWIDTH 482 0
DWIDTH 4 0
BBX 5 7 0 0
BITMAP
4BC700
EEFF40
FDBF50
FFAE50
FDBF50
CEFF20
178300
ENDCHAR
STARTCHAR question
ENCODING 63
SWIDTH 578 0
DWIDTH 5 0
BBX 6 6 0 0
BITMAP
6C9990
FEFAE3
FFA9F3
FFAFF3
FFFFF3
6EFE90
ENDCHAR
STARTCHAR at
ENCODING 64
SWIDTH 578 0
DWIDTH 5 0
BBX 6 6 0 0
BITMAP
699880
CBAA93
CA9793
E998A3
FBAFF3
6EFE90
ENDCHAR
STARTCHAR A
ENCODING 65
SWIDTH 578 0
DWIDTH 5 0
BBX 6 6 0 0
BITMAP
6C8990
F9E8F3
F795F3
F7FAD3
FFFFF3
6EFE90
ENDCHAR
STARTCHAR B
ENCODING 66
SWIDTH 578 0
DWIDTH 5 0
BBX 6 6 0 0
BITMAP
688890
F8E7F3
F796F3
F786F3
FFFFF3
6EFE90
ENDCHAR
STARTCHAR C
ENCODING 67
SWIDTH 578 0
DWIDTH 5 0
BBX 6 6 0 0
BITMAP
6A8A90
F8FFF3
F8FFF3
F88AF3
FFFFF3
6EFE90
ENDCHAR
STARTCHAR D
ENCODING 68
SWIDTH 578 0
DWIDTH 5 0
BBX 6 6 0 0
BITMAP
698780
F8FBC3
F8FBC3
F786D3
FFFFF3
6EFE90
ENDCHAR
STARTCHAR E
ENCODING 69
SWIDTH 578 0
DWIDTH 5 0
BBX 6 6 0 0
BITMAP
6C7890
FCBFF3
FC7BF3
FC68F3
FFFFF3
6EFE90
ENDCHAR
STARTCHAR F
ENCODING 70
SWIDTH 578 0
DWIDTH 5 0
BBX 6 6 0 0
BITMAP
6C7890
FBAEF3
FB8BF3
FBCFF3
FFFFF3
6EFE90
ENDCHAR
STARTCHAR G
ENCODING 71
SWIDTH 578 0
DWIDTH 5 0
BBX 6 6 0 0
BITMAP
6B8890
F8FFF3
F8E6D3
F986D3
FFFFF3
6EFE90
ENDCHAR
STARTCHAR H
ENCODING 72
SWIDTH 578 0
DWIDTH 5 0
BBX 6 6 0 0
BITMAP
6AFC70
F8EAC3
F797C3
F8FBC3
FFFFF3
6EFE90
ENDCHAR
STARTCHAR I
ENCODING 73
SWIDTH 578 0
DWIDTH 5 0
BBX 6 6 0 0
BITMAP
6B7780
FF9EF3
FF9EF3
FC58E3
FFFFF3
6EFE90
ENDCHAR
STARTCHAR J
ENCODING 74
SWIDTH 578 0
DWIDTH 5 0
BBX 6 6 0 0
BITMAP
6EFA90
FFF8F3
FFF8F3
FF89F3
FFFFF3
6EFE90
ENDCHAR
STARTCHAR K
ENCODING 75
SWIDTH 578 0
DWIDTH 5 0
BBX 6 6 0 0
BITMAP
6CDB60
FC78F3
FC4BF3
FCB8D3
FFFFF3
6EFE90
ENDCHAR
STARTCHAR L
ENCODING 76
SWIDTH 578 0
DWIDTH 5 0
BBX 6 6 0 0
BITMAP
6EBE90
FF8FF3
FF8FF3
FF5AF3
FFFFF3
6EFE90
ENDCHAR
STARTCHAR M
ENCODING 77
SWIDTH 578 0
DWIDTH 5 0
BBX 6 6 0 0
BITMAP
688760
F88DA3
F8ADA3
F8FDA3
FFFFF3
6EFE90
ENDCHAR
STARTCHAR N
ENCODING 78
SWIDTH 578 0
DWIDTH 5 0
BBX 6 6 0 0
BITMAP
698790
F8F9E3
F8F9E3
F8F9E3
FFFFF3
6EFE90
ENDCHAR
STARTCHAR O
ENCODING 79
SWIDTH 578 0
DWIDTH 5 0
BBX 6 6 0 0
BITMAP
6A8780
F8FBC3
F8FBC3
F986D3
FFFFF3
6EFE90
ENDCHAR
STARTCHAR P
ENCODING 80
SWIDTH 578 0
DWIDTH 5 0
BBX 6 6 0 0
BITMAP
6B8790
FAD9E3
FA77F3
FADFF3
FFFFF3
6EFE90
ENDCHAR
STARTCHAR Q
ENCODING 81
SWIDTH 578 0
DWIDTH 5 0
BBX 6 6 0 0
BITMAP
6A8780
F8FBC3
F8FBC3
F965D3
FFFAF3
6EFE90
ENDCHAR
STARTCHAR R
ENCODING 82
SWIDTH 578 0
DWIDTH 5 0
BBX 6 6 0 0
BITMAP
6A8890
F8F8F3
F887F3
F8F8F3
FFFFF3
6EFE90
ENDCHAR
STARTCHAR S
ENCODING 83
SWIDTH 578 0
DWIDTH 5 0
BBX 6 6 0 0
BITMAP
6B8890
F8EEF3
FE96E3
FD86E3
FFFFF3
6EFE90
ENDCHAR
STARTCHAR T
ENCODING 84
SWIDTH 578 0
DWIDTH 5 0
BBX 6 6 0 0
BITMAP
6B7780
FF9EF3
FF9EF3
FF9EF3
FFFFF3
6EFE90
ENDCHAR
STARTCHAR U
ENCODING 85
SWIDTH 578 0
DWIDTH 5 0
BBX 6 6 0 0
BITMAP
6AFC70
F8FAD3
F8FAD3
F886E3
FFFFF3
6EFE90
ENDCHAR
STARTCHAR V
ENCODING 86
SWIDTH 578 0
DWIDTH 5 0
BBX 6 6 0 0
BITMAP
69FB80
FAD7F3
FD97F3
FF6AF3
FFFFF3
6EFE90
ENDCHAR
STARTCHAR W
ENCODING 87
SWIDTH 578 0
DWIDTH 5 0
BBX 6 6 0 0
BITMAP
6ABE50
F85BA3
F867B3
F783D3
FFFFF3
6EFE90
ENDCHAR
STARTCHAR X
ENCODING 88
SWIDTH 578 0
DWIDTH 5 0
BBX 6 6 0 0
BITMAP
6AEB80
FE87F3
FF69F3
FBC8E3
FFFFF3
6EFE90
ENDCHAR
STARTCHAR Y
ENCODING 89
SWIDTH 578 0
DWIDTH 5 0
BBX 6 6 0 0
BITMAP
6AEA80
FE87F3
FF6BF3
FF8FF3
FFFFF3
6EFE90
ENDCHAR
STARTCHAR Z
ENCODING 90
SWIDTH 578 0
DWIDTH 5 0
BBX 6 6 0 0
BITMAP
6C8890
FFDAF3
FF7FF3
FC59F3
FFFFF3
6EFE90
ENDCHAR
STARTCHAR bracketleft
ENCODING 91
SWIDTH 484 0
DWIDTH 4 0
BBX 5 6 0 0
BITMAP
6C9B00
FDAF50
FDAF60
FDAF60
FEBF50
6EFB10
ENDCHAR
STARTCHAR backslash
ENCODING 92
SWIDTH 516 0
DWIDTH 5 0
BBX 5 6 0 0
BITMAP
6DBD30
FF8F90
FF8FA0
FF8FA0
FFFF90
6EFD30
ENDCHAR
STARTCHAR bracketright
ENCODING 93
SWIDTH 484 0
DWIDTH 4 0
BBX 5 6 0 0
BITMAP
6C9B00
FF8F50
FF8F60
FF8F60
FDCF50
6EFB10
ENDCHAR
STARTCHAR asciicircum
ENCODING 94
SWIDTH 355 0
DWIDTH 3 0
BBX 4 4 0 2
BITMAP
0510
7BA0
DBD1
ABC1
ENDCHAR
STARTCHAR underscore
ENCODING 95
SWIDTH 428 0
DWIDTH 4 0
BBX 4 6 0 0
BITMAP
6EE5
FFFC
FFFD
FFFD
E88C
6ED5
ENDCHAR
STARTCHAR grave
ENCODING 96
SWIDTH 308 0
DWIDTH 3 0
BBX 3 3 0 0
BITMAP
CD40
C9A0
3D90
ENDCHAR
STARTCHAR a
ENCODING 97
SWIDTH 578 0
DWIDTH 5 0
BBX 6 6 0 0
BITMAP
6B8990
FFF9F3
F886F3
F886F3
FFFFF3
6EFE90
ENDCHAR
STARTCHAR b
ENCODING 98
SWIDTH 578 0
DWIDTH 5 0
BBX 6 6 0 0
BITMAP
688890
F8E7F3
F796F3
F786F3
FFFFF3
6EFE90
ENDCHAR
STARTCHAR c
ENCODING 99
SWIDTH 578 0
DWIDTH 5 0
BBX 6 6 0 0
BITMAP
6A8A90
F8FFF3
F8FFF3
F88AF3
FFFFF3
6EFE90
ENDCHAR
STARTCHAR d
ENCODING 100
SWIDTH 578 0
DWIDTH 5 0
BBX 6 6 0 0
BITMAP
698780
F8FBC3
F8FBC3
F786D3
FFFFF3
6EFE90
ENDCHAR
STARTCHAR e
ENCODING 101
SWIDTH 578 0
DWIDTH 5 0
BBX 6 6 0 0
BITMAP
698990
F7B6F3
F7CDF3
F98AF3
FFFFF3
6EFE90
ENDCHAR
STARTCHAR f
ENCODING 102
SWIDTH 578 0
DWIDTH 5 0
BBX 6 6 0 0
BITMAP
6C7890
FBAEF3
FB8BF3
FBCFF3
FFFFF3
6EFE90
ENDCHAR
STARTCHAR g
ENCODING 103
SWIDTH 578 0
DWIDTH 5 0
BBX 6 6 0 0
BITMAP
6B8890
F8FFF3
F8E6D3
F986D3
FFFFF3
6EFE90
ENDCHAR
STARTCHAR h
ENCODING 104
SWIDTH 578 0
DWIDTH 5 0
BBX 6 6 0 0
BITMAP
6AFC70
F8EAC3
F797C3
F8FBC3
FFFFF3
6EFE90
ENDCHAR
STARTCHAR i
ENCODING 105
SWIDTH 578 0
DWIDTH 5 0
BBX 6 6 0 0
BITMAP
6B7780
FF9EF3
FF9EF3
FC58E3
FFFFF3
6EFE90
ENDCHAR
STARTCHAR j
ENCODING 106
SWIDTH 578 0
DWIDTH 5 0
BBX 6 6 0 0
BITMAP
6EFA90
FFF8F3
FFF8F3
FF89F3
FFFFF3
6EFE90
ENDCHAR
STARTCHAR k
ENCODING 107
SWIDTH 578 0
DWIDTH 5 0
BBX 6 6 0 0
BITMAP
6CDB60
FC78F3
FC4BF3
FCB8D3
FFFFF3
6EFE90
ENDCHAR
STARTCHAR l
ENCODING 108
SWIDTH 578 0
DWIDTH 5 0
BBX 6 6 0 0
BITMAP
6EBE90
FF8FF3
FF8FF3
FF5AF3
FFFFF3
6EFE90
ENDCHAR
STARTCHAR m
ENCODING 109
SWIDTH 578 0
DWIDTH 5 0
BBX 6 6 0 0
BITMAP
688760
F88DA3
F8ADA3
F8FDA3
FFFFF3
6EFE90
ENDCHAR
STARTCHAR n
ENCODING 110
SWIDTH 578 0
DWIDTH 5 0
BBX 6 6 0 0
BITMAP
698790
F8F9E3
F8F9E3
F8F9E3
FFFFF3
6EFE90
ENDCHAR
STARTCHAR o
ENCODING 111
SWIDTH 578 0
DWIDTH 5 0
BBX 6 6 0 0
BITMAP
6A8780
F8FBC3
F8FBC3
F986D3
FFFFF3
6EFE90
ENDCHAR
STARTCHAR p
ENCODING 112
SWIDTH 578 0
DWIDTH 5 0
BBX 6 6 0 0
BITMAP
6B8790
FAD9E3
FA77F3
FADFF3
FFFFF3
6EFE90
ENDCHAR
STARTCHAR q
ENCODING 113
SWIDTH 578 0
DWIDTH 5 0
BBX 6 6 0 0
BITMAP
6A8780
F8FBC3
F8FBC3
F965D3
FFFAF3
6EFE90
ENDCHAR
STARTCHAR r
ENCODING 114
SWIDTH 578 0
DWIDTH 5 0
BBX 6 6 0 0
BITMAP
6A8890
F8F8F3
F887F3
F8F8F3
FFFFF3
6EFE90
ENDCHAR
STARTCHAR s
ENCODING 115
SWIDTH 578 0
DWIDTH 5 0
BBX 6 6 0 0
BITMAP
6B8890
F8EEF3
FE96E3
FD86E3
FFFFF3
6EFE90
ENDCHAR
STARTCHAR t
ENCODING 116
SWIDTH 578 0
DWIDTH 5 0
BBX 6 6 0 0
BITMAP
6B7780
FF9EF3
FF9EF3
FF9EF3
FFFFF3
6EFE90
ENDCHAR
STARTCHAR u
ENCODING 117
SWIDTH 578 0
DWIDTH 5 0
BBX 6 6 0 0
BITMAP
6AFC70
F8FAD3
F8FAD3
F886E3
FFFFF3
6EFE90
ENDCHAR
STARTCHAR v
ENCODING 118
SWIDTH 578 0
DWIDTH 5 0
BBX 6 6 0 0
BITMAP
69FB80
FAD7F3
FD97F3
FF6AF3
FFFFF3
6EFE90
ENDCHAR
STARTCHAR w
ENCODING 119
SWIDTH 578 0
DWIDTH 5 0
BBX 6 6 0 0
BITMAP
6ABE50
F85BA3
F867B3
F783D3
FFFFF3
6EFE90
ENDCHAR
STARTCHAR x
ENCODING 120
SWIDTH 578 0
DWIDTH 5 0
BBX 6 6 0 0
BITMAP
6AEB80
FE87F3
FF69F3
FBC8E3
FFFFF3
6EFE90
ENDCHAR
STARTCHAR y
ENCODING 121
SWIDTH 578 0
DWIDTH 5 0
BBX 6 6 0 0
BITMAP
6AEA80
FE87F3
FF6BF3
FF8FF3
FFFFF3
6EFE90
ENDCHAR
STARTCHAR z
ENCODING 122
SWIDTH 578 0
DWIDTH 5 0
BBX 6 6 0 0
BITMAP
6C8890
FFDAF3
FF7FF3
FC59F3
FFFFF3
6EFE90
ENDCHAR
STARTCHAR braceleft
ENCODING 123
SWIDTH 484 0
DWIDTH 4 0
BBX 5 6 0 0
BITMAP
6B8B00
F9EF50
D4FF60
F9EF60
FD9F50
6EFB10
ENDCHAR
STARTCHAR bar
ENCODING 124
SWIDTH 484 0
DWIDTH 4 0
BBX 5 6 0 0
BITMAP
6E9B00
FF9F50
FF9F60
FF9F60
FFDF50
6EFB10
ENDCHAR
STARTCHAR braceright
ENCODING 125
SWIDTH 484 0
DWIDTH 4 0
BBX 5 6 0 0
BITMAP
6A9B00
FF8F50
FF7A60
FF8F60
FBBF50
6EFB10
ENDCHAR
STARTCHAR asciitilde
ENCODING 126
SWIDTH 578 0
DWIDTH 5 0
BBX 6 6 0 0
BITMAP
6EFE90
FB99F3
FEFDF3
FFFFF3
FFFFF3
6EFE90
ENDCHAR
STARTCHAR uni00A0
ENCODING 160
SWIDTH 151 0
DWIDTH 1 0
BBX 1 1 0 0
BITMAP
00
ENDCHAR
STARTCHAR exclamdown
ENCODING 161
SWIDTH 424 0
DWIDTH 4 0
BBX 4 6 0 0
BITMAP
6CC4
FDDC
FCDD
FCDD
FFFC
6ED4
ENDCHAR
STARTCHAR cent
ENCODING 162
SWIDTH 578 0
DWIDTH 5 0
BBX 6 6 0 0
BITMAP
6E9D90
F96CF3
F99FF3
FB5BF3
FFCFF3
6EFE90
ENDCHAR
STARTCHAR sterling
ENCODING 163
SWIDTH 578 0
DWIDTH 5 0
BBX 6 6 0 0
BITMAP
6E8990
FDACF3
FC7DF3
FD5AF3
FFFFF3
6EFE90
ENDCHAR
STARTCHAR currency
ENCODING 164
SWIDTH 578 0
DWIDTH 5 0
BBX 6 6 0 0
BITMAP
6BB990
FBC8F3
FA96F3
FDEDF3
FFFFF3
6EFE90
ENDCHAR
STARTCHAR yen
ENCODING 165
SWIDTH 578 0
DWIDTH 5 0
BBX 6 6 0 0
BITMAP
69FA90
FCA8F3
FE2BF3
FE5CF3
FFFFF3
6EFE90
ENDCHAR
STARTCHAR brokenbar
ENCODING 166
SWIDTH 484 0
DWIDTH 4 0
BBX 5 6 0 0
BITMAP
6EBB00
FE9F50
FFBF60
FE8F60
FFFF50
6EFB10
ENDCHAR
STARTCHAR section
ENCODING 167
SWIDTH 578 0
DWIDTH 5 0
BBX 6 6 0 0
BITMAP
6C9A90
FA9DF3
FE88F3
FFE9F3
FC9BF3
6EFE90
ENDCHAR
STARTCHAR dieresis
ENCODING 168
SWIDTH 388 0
DWIDTH 4 0
BBX 4 3 0 0
BITMAP
3860
DCB6
9CB3
ENDCHAR
STARTCHAR copyright
ENCODING 169
SWIDTH 578 0
DWIDTH 5 0
BBX 6 6 0 0
BITMAP
6BBA90
DA9CA3
BDCFA3
EA9BA3
FDABF3
6EFE90
ENDCHAR
STARTCHAR ordfeminine
ENCODING 170
SWIDTH 578 0
DWIDTH 5 0
BBX 6 6 0 0
BITMAP
6E8990
FFB6F3
FAA6F3
FEABF3
FFFFF3
6EFE90
ENDCHAR
STARTCHAR guillemotleft
ENCODING 171
SWIDTH 578 0
DWIDTH 5 0
BBX 6 6 0 0
BITMAP
6EEE90
FDABF3
FAAFF3
FEABF3
FFEEF3
6EFE90
ENDCHAR
STARTCHAR uni00AD
ENCODING 173
SWIDTH 428 0
DWIDTH 4 0
BBX 4 6 0 0
BITMAP
6EE5
F8AC
FFFD
FFFD
FFFC
6ED5
ENDCHAR
STARTCHAR registered
ENCODING 174
SWIDTH 578 0
DWIDTH 5 0
BBX 6 6 0 0
BITMAP
6BBA90
DA8AA3
BE8AA3
EADBA3
FDABF3
6EFE90
ENDCHAR
STARTCHAR macron
ENCODING 175
SWIDTH 428 0
DWIDTH 4 0
BBX 4 3 0 0
BITMAP
3882
E9BC
BEE8
ENDCHAR
STARTCHAR degree
ENCODING 176
SWIDTH 428 0
DWIDTH 4 0
BBX 4 6 0 0
BITMAP
6995
F88C
FFFD
FFFD
FFFC
6ED5
ENDCHAR
STARTCHAR plusminus
ENCODING 177
SWIDTH 428 0
DWIDTH 4 0
BBX 4 6 0 0
BITMAP
6BC5
E66C
FCCD
FABD
FFFC
6ED5
ENDCHAR
STARTCHAR uni00B2
ENCODING 178
SWIDTH 578 0
DWIDTH 5 0
BBX 6 6 0 0
BITMAP
6D8A90
FD7AF3
FD7CF3
FFFFF3
FFFFF3
6EFE90
ENDCHAR
STARTCHAR uni00B3
ENCODING 179
SWIDTH 578 0
DWIDTH 5 0
BBX 6 6 0 0
BITMAP
6D8890
FFC6F3
FE78F3
FFFFF3
FFFFF3
6EFE90
ENDCHAR
STARTCHAR acute
ENCODING 180
SWIDTH 308 0
DWIDTH 3 0
BBX 3 3 0 0
BITMAP
7D90
D980
CC10
ENDCHAR
STARTCHAR uni00B5
ENCODING 181
SWIDTH 578 0
DWIDTH 5 0
BBX 6 6 0 0
BITMAP
6AFB80
F8F9E3
F8F9E3
F685F3
FBFFF3
6EFE90
ENDCHAR
STARTCHAR paragraph
ENCODING 182
SWIDTH 578 0
DWIDTH 5 0
BBX 6 6 0 0
BITMAP
6A7A90
F60AF3
FD8AF3
FFCBF3
FFFFF3
6EFE90
ENDCHAR
STARTCHAR periodcentered
ENCODING 183
SWIDTH 428 0
DWIDTH 4 0
BBX 4 6 0 0
BITMAP
6EE5
FCDC
FFFD
FFFD
FFFC
6ED5
ENDCHAR
STARTCHAR cedilla
ENCODING 184
SWIDTH 101 0
DWIDTH 1 0
BBX 1 2 0 -2
BITMAP
80
40
ENDCHAR
STARTCHAR uni00B9
ENCODING 185
SWIDTH 578 0
DWIDTH 5 0
BBX 6 6 0 0
BITMAP
6E7E90
FF8FF3
FFAFF3
FFFFF3
FFFFF3
6EFE90
ENDCHAR
STARTCHAR ordmasculine
ENCODING 186
SWIDTH 578 0
DWIDTH 5 0
BBX 6 6 0 0
BITMAP
6C8790
F9E9E3
F9D8E3
FE9AF3
FFFFF3
6EFE90
ENDCHAR
STARTCHAR guillemotright
ENCODING 187
SWIDTH 578 0
DWIDTH 5 0
BBX 6 6 0 0
BITMAP
6DEE90
FCACF3
FFAAF3
FCACF3
FEEFF3
6EFE90
ENDCHAR
STARTCHAR onequarter
ENCODING 188
SWIDTH 578 0
DWIDTH 5 0
BBX 6 6 0 0
BITMAP
48AE90
E88FE3
F95A93
FBA653
FFFFC3
6EFE90
ENDCHAR
STARTCHAR onehalf
ENCODING 189
SWIDTH 578 0
DWIDTH 5 0
BBX 6 6 0 0
BITMAP
48AE90
E88AC3
F97773
FBA5B3
FFFFF3
6EFE90
ENDCHAR
STARTCHAR threequarters
ENCODING 190
SWIDTH 578 0
DWIDTH 5 0
BBX 6 6 0 0
BITMAP
48AE90
E88AC3
F97953
FBA763
FFFFF3
6EFE90
ENDCHAR
STARTCHAR questiondown
ENCODING 191
SWIDTH 578 0
DWIDTH 5 0
BBX 6 6 0 0
BITMAP
6EDD90
FF9DF3
FACFF3
FB98F3
FFFFF3
6EFE90
ENDCHAR
STARTCHAR Agrave
ENCODING 192
SWIDTH 578 0
DWIDTH 5 0
BBX 6 9 0 0
BITMAP
1DD200
1D9700
05D700
6C8990
F9E8F3
F795F3
F7FAD3
FFFFF3
6EFE90
ENDCHAR
STARTCHAR Aacute
ENCODING 193
SWIDTH 578 0
DWIDTH 5 0
BBX 6 9 0 0
BITMAP
00CD40
04BD30
04D900
6C8990
F9E8F3
F795F3
F7FAD3
FFFFF3
6EFE90
ENDCHAR
STARTCHAR Acircumflex
ENCODING 194
SWIDTH 578 0
DWIDTH 5 0
BBX 6 10 0 0
BITMAP
002100
05CB00
0B9C20
0ACC30
6C8990
F9E8F3
F795F3
F7FAD3
FFFFF3
6EFE90
ENDCHAR
STARTCHAR Atilde
ENCODING 195
SWIDTH 578 0
DWIDTH 5 0
BBX 6 9 0 0
BITMAP
07DB20
2FDD90
1CBB70
6C8990
F9E8F3
F795F3
F7FAD3
FFFFF3
6EFE90
ENDCHAR
STARTCHAR Adieresis
ENCODING 196
SWIDTH 578 0
DWIDTH 5 0
BBX 6 9 0 0
BITMAP
038600
0DCB60
09CB30
6C8990
F9E8F3
F795F3
F7FAD3
FFFFF3
6EFE90
ENDCHAR
STARTCHAR Aring
ENCODING 197
SWIDTH 578 0
DWIDTH 5 0
BBX 6 9 0 0
BITMAP
04B800
0D7A40
0CAD30
6C8990
F9E8F3
F795F3
F7FAD3
FFFFF3
6EFE90
ENDCHAR
STARTCHAR AE
ENCODING 198
SWIDTH 578 0
DWIDTH 5 0
BBX 6 6 0 0
BITMAP
6A7780
F88EF3
F879E3
F658E3
FFFFF3
6EFE90
ENDCHAR
STARTCHAR Ccedilla
ENCODING 199
SWIDTH 578 0
DWIDTH 5 0
BBX 6 6 0 0
BITMAP
6A8A90
F8FFF3
F8FFF3
F88AF3
FF7FF3
6EAE90
ENDCHAR
STARTCHAR Egrave
ENCODING 200
SWIDTH 578 0
DWIDTH 5 0
BBX 6 9 0 0
BITMAP
0CD300
0D9900
04D800
6C7890
FCBFF3
FC7BF3
FC68F3
FFFFF3
6EFE90
ENDCHAR
STARTCHAR Eacute
ENCODING 201
SWIDTH 578 0
DWIDTH 5 0
BBX 6 9 0 0
BITMAP
00CD50
02CC40
02DA00
6C7890
FCBFF3
FC7BF3
FC68F3
FFFFF3
6EFE90
ENDCHAR
STARTCHAR Ecircumflex
ENCODING 202
SWIDTH 578 0
DWIDTH 5 0
BBX 6 10 0 0
BITMAP
002100
03DC00
0AAB40
09CC40
6C7890
FCBFF3
FC7BF3
FC68F3
FFFFF3
6EFE90
ENDCHAR
STARTCHAR Edieresis
ENCODING 203
SWIDTH 578 0
DWIDTH 5 0
BBX 6 9 0 0
BITMAP
028710
0CBB80
08CB40
6C7890
FCBFF3
FC7BF3
FC68F3
FFFFF3
6EFE90
ENDCHAR
STARTCHAR Igrave
ENCODING 204
SWIDTH 578 0
DWIDTH 5 0
BBX 6 9 0 0
BITMAP
0CD400
0C9900
04D900
6B7780
FF9EF3
FF9EF3
FC58E3
FFFFF3
6EFE90
ENDCHAR
STARTCHAR Iacute
ENCODING 205
SWIDTH 578 0
DWIDTH 5 0
BBX 6 9 0 0
BITMAP
00BD50
02CC50
02DA00
6B7780
FF9EF3
FF9EF3
FC58E3
FFFFF3
6EFE90
ENDCHAR
STARTCHAR Icircumflex
ENCODING 206
SWIDTH 578 0
DWIDTH 5 0
BBX 6 10 0 0
BITMAP
002100
03DC00
09AB50
08CC50
6B7780
FF9EF3
FF9EF3
FC58E3
FFFFF3
6EFE90
ENDCHAR
STARTCHAR Idieresis
ENCODING 207
SWIDTH 578 0
DWIDTH 5 0
BBX 6 9 0 0
BITMAP
028710
0CBB80
08CB40
6B7780
FF9EF3
FF9EF3
FC58E3
FFFFF3
6EFE90
ENDCHAR
STARTCHAR Eth
ENCODING 208
SWIDTH 578 0
DWIDTH 5 0
BBX 6 6 0 0
BITMAP
698780
F8FBC3
F6EBC3
F786D3
FFFFF3
6EFE90
ENDCHAR
STARTCHAR Ntilde
ENCODING 209
SWIDTH 578 0
DWIDTH 5 0
BBX 6 9 0 0
BITMAP
08DA10
3EED80
2CBC50
698790
F8F9E3
F8F9E3
F8F9E3
FFFFF3
6EFE90
ENDCHAR
STARTCHAR Ograve
ENCODING 210
SWIDTH 578 0
DWIDTH 5 0
BBX 6 9 0 0
BITMAP
0CD300
0D9800
05D800
6A8780
F8FBC3
F8FBC3
F986D3
FFFFF3
6EFE90
ENDCHAR
STARTCHAR Oacute
ENCODING 211
SWIDTH 578 0
DWIDTH 5 0
BBX 6 9 0 0
BITMAP
00CD40
03BC40
03DA00
6A8780
F8FBC3
F8FBC3
F986D3
FFFFF3
6EFE90
ENDCHAR
STARTCHAR Ocircumflex
ENCODING 212
SWIDTH 578 0
DWIDTH 5 0
BBX 6 10 0 0
BITMAP
002100
04DC00
0AAB30
09CC40
6A8780
F8FBC3
F8FBC3
F986D3
FFFFF3
6EFE90
ENDCHAR
STARTCHAR Otilde
ENCODING 213
SWIDTH 578 0
DWIDTH 5 0
BBX 6 9 0 0
BITMAP
06CB20
1FDDA0
0CAB80
6A8780
F8FBC3
F8FBC3
F986D3
FFFFF3
6EFE90
ENDCHAR
STARTCHAR Odieresis
ENCODING 214
SWIDTH 578 0
DWIDTH 5 0
BBX 6 9 0 0
BITMAP
028710
0CBB70
08CB40
6A8780
F8FBC3
F8FBC3
F986D3
FFFFF3
6EFE90
ENDCHAR
STARTCHAR multiply
ENCODING 215
SWIDTH 578 0
DWIDTH 5 0
BBX 6 6 0 0
BITMAP
6EFE90
FFABF3
FF7BF3
FFFFF3
FFFFF3
6EFE90
ENDCHAR
STARTCHAR Oslash
ENCODING 216
SWIDTH 578 0
DWIDTH 5 0
BBX 6 6 0 0
BITMAP
6A8780
F8D5D3
F88AD3
F766E3
FFFFF3
6EFE90
ENDCHAR
STARTCHAR Ugrave
ENCODING 217
SWIDTH 578 0
DWIDTH 5 0
BBX 6 9 0 0
BITMAP
0CD300
0D9900
04D800
6AFC70
F8FAD3
F8FAD3
F886E3
FFFFF3
6EFE90
ENDCHAR
STARTCHAR Uacute
ENCODING 218
SWIDTH 578 0
DWIDTH 5 0
BBX 6 9 0 0
BITMAP
00CD50
02CC40
02DA00
6AFC70
F8FAD3
F8FAD3
F886E3
FFFFF3
6EFE90
ENDCHAR
STARTCHAR Ucircumflex
ENCODING 219
SWIDTH 578 0
DWIDTH 5 0
BBX 6 10 0 0
BITMAP
002100
03DC00
0AAB40
09CC40
6AFC70
F8FAD3
F8FAD3
F886E3
FFFFF3
6EFE90
ENDCHAR
STARTCHAR Udieresis
ENCODING 220
SWIDTH 578 0
DWIDTH 5 0
BBX 6 9 0 0
BITMAP
028710
0CBB80
08CB40
6AFC70
F8FAD3
F8FAD3
F886E3
FFFFF3
6EFE90
ENDCHAR
STARTCHAR Yacute
ENCODING 221
SWIDTH 578 0
DWIDTH 5 0
BBX 6 9 0 0
BITMAP
00CD50
03CC40
03DA00
6AEA80
FE87F3
FF6BF3
FF8FF3
FFFFF3
6EFE90
ENDCHAR
STARTCHAR Thorn
ENCODING 222
SWIDTH 578 0
DWIDTH 5 0
BBX 6 6 0 0
BITMAP
6AEE90
FA76E3
FA76E3
FADFF3
FFFFF3
6EFE90
ENDCHAR
STARTCHAR germandbls
ENCODING 223
SWIDTH 578 0
DWIDTH 5 0
BBX 6 6 0 0
BITMAP
6A8890
F8F7F3
F8F8E3
F8B6D3
FFFFF3
6EFE90
ENDCHAR
STARTCHAR agrave
ENCODING 224
SWIDTH 578 0
DWIDTH 5 0
BBX 6 9 0 0
BITMAP
0CD300
0D9800
04D800
6B8990
FFF9F3
F886F3
F886F3
FFFFF3
6EFE90
ENDCHAR
STARTCHAR aacute
ENCODING 225
SWIDTH 578 0
DWIDTH 5 0
BBX 6 9 0 0
BITMAP
00CD50
03CC40
03DA00
6B8990
FFF9F3
F886F3
F886F3
FFFFF3
6EFE90
ENDCHAR
STARTCHAR acircumflex
ENCODING 226
SWIDTH 578 0
DWIDTH 5 0
BBX 6 10 0 0
BITMAP
002100
03DC00
0AAB40
09CC40
6B8990
FFF9F3
F886F3
F886F3
FFFFF3
6EFE90
ENDCHAR
STARTCHAR atilde
ENCODING 227
SWIDTH 578 0
DWIDTH 5 0
BBX 6 9 0 0
BITMAP
06CB20
1FDDA0
0CAB80
6B8990
FFF9F3
F886F3
F886F3
FFFFF3
6EFE90
ENDCHAR
STARTCHAR adieresis
ENCODING 228
SWIDTH 578 0
DWIDTH 5 0
BBX 6 9 0 0
BITMAP
028710
0CBB80
08CB40
6B8990
FFF9F3
F886F3
F886F3
FFFFF3
6EFE90
ENDCHAR
STARTCHAR aring
ENCODING 229
SWIDTH 578 0
DWIDTH 5 0
BBX 6 9 0 0
BITMAP
03B900
0C7A50
0BBD40
6B8990
FFF9F3
F886F3
F886F3
FFFFF3
6EFE90
ENDCHAR
STARTCHAR ae
ENCODING 230
SWIDTH 578 0
DWIDTH 5 0
BBX 6 6 0 0
BITMAP
6A7780
F88EF3
F879E3
F658E3
FFFFF3
6EFE90
ENDCHAR
STARTCHAR ccedilla
ENCODING 231
SWIDTH 578 0
DWIDTH 5 0
BBX 6 6 0 0
BITMAP
6A8A90
F8FFF3
F8FFF3
F88AF3
FF7FF3
6EAE90
ENDCHAR
STARTCHAR egrave
ENCODING 232
SWIDTH 578 0
DWIDTH 5 0
BBX 6 9 0 0
BITMAP
1CD300
0D9800
05D700
698990
F7B6F3
F7CDF3
F98AF3
FFFFF3
6EFE90
ENDCHAR
STARTCHAR eacute
ENCODING 233
SWIDTH 578 0
DWIDTH 5 0
BBX 6 9 0 0
BITMAP
00DD30
04AD20
04D800
698990
F7B6F3
F7CDF3
F98AF3
FFFFF3
6EFE90
ENDCHAR
STARTCHAR ecircumflex
ENCODING 234
SWIDTH 578 0
DWIDTH 5 0
BBX 6 10 0 0
BITMAP
003000
06C900
0C8D10
0BCB20
698990
F7B6F3
F7CDF3
F98AF3
FFFFF3
6EFE90
ENDCHAR
STARTCHAR edieresis
ENCODING 235
SWIDTH 578 0
DWIDTH 5 0
BBX 6 9 0 0
BITMAP
048500
2DCC40
0BCB10
698990
F7B6F3
F7CDF3
F98AF3
FFFFF3
6EFE90
ENDCHAR
STARTCHAR igrave
ENCODING 236
SWIDTH 578 0
DWIDTH 5 0
BBX 6 9 0 0
BITMAP
0CD300
0D9900
04D800
6B7780
FF9EF3
FF9EF3
FC58E3
FFFFF3
6EFE90
ENDCHAR
STARTCHAR iacute
ENCODING 237
SWIDTH 578 0
DWIDTH 5 0
BBX 6 9 0 0
BITMAP
00BD50
02CC40
02DA00
6B7780
FF9EF3
FF9EF3
FC58E3
FFFFF3
6EFE90
ENDCHAR
STARTCHAR icircumflex
ENCODING 238
SWIDTH 578 0
DWIDTH 5 0
BBX 6 10 0 0
BITMAP
002100
03DC00
09AB40
09CC40
6B7780
FF9EF3
FF9EF3
FC58E3
FFFFF3
6EFE90
ENDCHAR
STARTCHAR idieresis
ENCODING 239
SWIDTH 578 0
DWIDTH 5 0
BBX 6 9 0 0
BITMAP
028710
0CBB80
08CB40
6B7780
FF9EF3
FF9EF3
FC58E3
FFFFF3
6EFE90
ENDCHAR
STARTCHAR eth
ENCODING 240
SWIDTH 578 0
DWIDTH 5 0
BBX 6 6 0 0
BITMAP
698780
F8FBC3
F6EBC3
F786D3
FFFFF3
6EFE90
ENDCHAR
STARTCHAR ntilde
ENCODING 241
SWIDTH 578 0
DWIDTH 5 0
BBX 6 9 0 0
BITMAP
08DA10
3EED80
2CBC50
698790
F8F9E3
F8F9E3
F8F9E3
FFFFF3
6EFE90
ENDCHAR
STARTCHAR oacute
ENCODING 243
SWIDTH 578 0
DWIDTH 5 0
BBX 6 9 0 0
BITMAP
00CD30
04AD30
04D800
6A8780
F8FBC3
F8FBC3
F986D3
FFFFF3
6EFE90
ENDCHAR
STARTCHAR ocircumflex
ENCODING 244
SWIDTH 578 0
DWIDTH 5 0
BBX 6 10 0 0
BITMAP
002100
03DC00
0AAB40
09CC40
6A8780
F8FBC3
F8FBC3
F986D3
FFFFF3
6EFE90
ENDCHAR
STARTCHAR otilde
ENCODING 245
SWIDTH 578 0
DWIDTH 5 0
BBX 6 9 0 0
BITMAP
07DB20
2FDDA0
1CAB70
6A8780
F8FBC3
F8FBC3
F986D3
FFFFF3
6EFE90
ENDCHAR
STARTCHAR odieresis
ENCODING 246
SWIDTH 578 0
DWIDTH 5 0
BBX 6 9 0 0
BITMAP
028710
0CBB80
08CB40
6A8780
F8FBC3
F8FBC3
F986D3
FFFFF3
6EFE90
ENDCHAR
STARTCHAR divide
ENCODING 247
SWIDTH 428 0
DWIDTH 4 0
BBX 4 6 0 0
BITMAP
6DD5
F79C
FCDD
FFFD
FFFC
6ED5
ENDCHAR
STARTCHAR oslash
ENCODING 248
SWIDTH 578 0
DWIDTH 5 0
BBX 6 6 0 0
BITMAP
6A8780
F8D5D3
F88AD3
F766E3
FFFFF3
6EFE90
ENDCHAR
STARTCHAR ugrave
ENCODING 249
SWIDTH 578 0
DWIDTH 5 0
BBX 6 9 0 0
BITMAP
0CD300
0D9900
04D800
6AFC70
F8FAD3
F8FAD3
F886E3
FFFFF3
6EFE90
ENDCHAR
STARTCHAR uacute
ENCODING 250
SWIDTH 578 0
DWIDTH 5 0
BBX 6 9 0 0
BITMAP
00BD50
02CC40
02DA00
6AFC70
F8FAD3
F8FAD3
F886E3
FFFFF3
6EFE90
ENDCHAR
STARTCHAR ucircumflex
ENCODING 251
SWIDTH 578 0
DWIDTH 5 0
BBX 6 10 0 0
BITMAP
002100
03DC00
09AB40
09CC40
6AFC70
F8FAD3
F8FAD3
F886E3
FFFFF3
6EFE90
ENDCHAR
STARTCHAR udieresis
ENCODING 252
SWIDTH 578 0
DWIDTH 5 0
BBX 6 9 0 0
BITMAP
028710
0CBB80
08CB40
6AFC70
F8FAD3
F8FAD3
F886E3
FFFFF3
6EFE90
ENDCHAR
STARTCHAR yacute
ENCODING 253
SWIDTH 578 0
DWIDTH 5 0
BBX 6 9 0 0
BITMAP
00CD50
03CC40
03DA00
6AEA80
FE87F3
FF6BF3
FF8FF3
FFFFF3
6EFE90
ENDCHAR
STARTCHAR thorn
ENCODING 254
SWIDTH 578 0
DWIDTH 5 0
BBX 6 6 0 0
BITMAP
6AEE90
FA76E3
FA76E3
FADFF3
FFFFF3
6EFE90
ENDCHAR
STARTCHAR ydieresis
ENCODING 255
SWIDTH 578 0
DWIDTH 5 0
BBX 6 9 0 0
BITMAP
028710
0CBB70
08CB40
6AEA80
FE87F3
FF6BF3
FF8FF3
FFFFF3
6EFE90
ENDCHAR
STARTCHAR Amacron
ENCODING 256
SWIDTH 578 0
DWIDTH 5 0
BBX 6 9 0 0
BITMAP
049710
2E9C90
1DEE60
6C8990
F9E8F3
F795F3
F7FAD3
FFFFF3
6EFE90
ENDCHAR
STARTCHAR amacron
ENCODING 257
SWIDTH 578 0
DWIDTH 5 0
BBX 6 9 0 0
BITMAP
049810
1E9CA0
0CEE70
6B8990
FFF9F3
F886F3
F886F3
FFFFF3
6EFE90
ENDCHAR
STARTCHAR Abreve
ENCODING 258
SWIDTH 578 0
DWIDTH 5 0
BBX 6 9 0 0
BITMAP
049710
2FDD90
1DAD60
6C8990
F9E8F3
F795F3
F7FAD3
FFFFF3
6EFE90
ENDCHAR
STARTCHAR abreve
ENCODING 259
SWIDTH 578 0
DWIDTH 5 0
BBX 6 9 0 0
BITMAP
049810
1FDDA0
0CAC70
6B8990
FFF9F3
F886F3
F886F3
FFFFF3
6EFE90
ENDCHAR
STARTCHAR Aogonek
ENCODING 260
SWIDTH 578 0
DWIDTH 5 0
BBX 6 6 0 0
BITMAP
6C8990
F9E8F3
F795F3
F7FAD3
FFF9F3
6EFB80
ENDCHAR
STARTCHAR aogonek
ENCODING 261
SWIDTH 578 0
DWIDTH 5 0
BBX 6 6 0 0
BITMAP
6B8990
FFF8F3
F885F3
F885F3
FF9FF3
6EBE90
ENDCHAR
STARTCHAR Cacute
ENCODING 262
SWIDTH 578 0
DWIDTH 5 0
BBX 6 9 0 0
BITMAP
00BD50
02CC50
02DA00
6A8A90
F8FFF3
F8FFF3
F88AF3
FFFFF3
6EFE90
ENDCHAR
STARTCHAR cacute
ENCODING 263
SWIDTH 578 0
DWIDTH 5 0
BBX 6 9 0 0
BITMAP
00CD50
02CC40
02DA00
6A8A90
F8FFF3
F8FFF3
F88AF3
FFFFF3
6EFE90
ENDCHAR
STARTCHAR Ccircumflex
ENCODING 264
SWIDTH 578 0
DWIDTH 5 0
BBX 6 10 0 0
BITMAP
002100
04CB00
0B9B30
0ACC30
6A8A90
F8FFF3
F8FFF3
F88AF3
FFFFF3
6EFE90
ENDCHAR
STARTCHAR ccircumflex
ENCODING 265
SWIDTH 578 0
DWIDTH 5 0
BBX 6 10 0 0
BITMAP
002100
05CB00
0B9C20
0ACC30
6A8A90
F8FFF3
F8FFF3
F88AF3
FFFFF3
6EFE90
ENDCHAR
STARTCHAR Cdotaccent
ENCODING 266
SWIDTH 578 0
DWIDTH 5 0
BBX 6 9 0 0
BITMAP
069600
5FBF60
3EDE40
6A8A90
F8FFF3
F8FFF3
F88AF3
FFFFF3
6EFE90
ENDCHAR
STARTCHAR cdotaccent
ENCODING 267
SWIDTH 578 0
DWIDTH 5 0
BBX 6 9 0 0
BITMAP
059700
4FBF70
2EDE50
6A8A90
F8FFF3
F8FFF3
F88AF3
FFFFF3
6EFE90
ENDCHAR
STARTCHAR Ccaron
ENCODING 268
SWIDTH 578 0
DWIDTH 5 0
BBX 6 9 0 0
BITMAP
0CCC10
0E7E10
09AA00
6A8A90
F8FFF3
F8FFF3
F88AF3
FFFFF3
6EFE90
ENDCHAR
STARTCHAR ccaron
ENCODING 269
SWIDTH 578 0
DWIDTH 5 0
BBX 6 9 0 0
BITMAP
0BCC20
0D8D20
07AB00
6A8A90
F8FFF3
F8FFF3
F88AF3
FFFFF3
6EFE90
ENDCHAR
STARTCHAR Dcaron
ENCODING 270
SWIDTH 578 0
DWIDTH 5 0
BBX 6 9 0 0
BITMAP
0BCC20
0D8D20
08AB00
698780
F8FBC3
F8FBC3
F786D3
FFFFF3
6EFE90
ENDCHAR
STARTCHAR dcaron
ENCODING 271
SWIDTH 578 0
DWIDTH 5 0
BBX 6 6 0 0
BITMAP
668850
F8F7D3
F8F8F3
F588F3
FFFFF3
6EFE90
ENDCHAR
STARTCHAR Dcroat
ENCODING 272
SWIDTH 578 0
DWIDTH 5 0
BBX 6 6 0 0
BITMAP
698780
E6DBC3
F6DBC3
F786D3
FFFFF3
6EFE90
ENDCHAR
STARTCHAR dcroat
ENCODING 273
SWIDTH 578 0
DWIDTH 5 0
BBX 6 6 0 0
BITMAP
698780
E6DBC3
F6DBC3
F786D3
FFFFF3
6EFE90
ENDCHAR
STARTCHAR Emacron
ENCODING 274
SWIDTH 578 0
DWIDTH 5 0
BBX 6 9 0 0
BITMAP
039810
1E9CA0
0CEE70
6C7890
FCBFF3
FC7BF3
FC68F3
FFFFF3
6EFE90
ENDCHAR
STARTCHAR emacron
ENCODING 275
SWIDTH 578 0
DWIDTH 5 0
BBX 6 9 0 0
BITMAP
059700
4D9D70
2EEE40
698990
F7B6F3
F7CDF3
F98AF3
FFFFF3
6EFE90
ENDCHAR
STARTCHAR Ebreve
ENCODING 276
SWIDTH 578 0
DWIDTH 5 0
BBX 6 9 0 0
BITMAP
039810
1FDDA0
0CAC70
6C7890
FCBFF3
FC7BF3
FC68F3
FFFFF3
6EFE90
ENDCHAR
STARTCHAR ebreve
ENCODING 277
SWIDTH 578 0
DWIDTH 5 0
BBX 6 9 0 0
BITMAP
059700
4EED70
2D9D40
698990
F7B6F3
F7CDF3
F98AF3
FFFFF3
6EFE90
ENDCHAR
STARTCHAR Edotaccent
ENCODING 278
SWIDTH 578 0
DWIDTH 5 0
BBX 6 9 0 0
BITMAP
039810
1FCEA0
0DDE80
6C7890
FCBFF3
FC7BF3
FC68F3
FFFFF3
6EFE90
ENDCHAR
STARTCHAR edotaccent
ENCODING 279
SWIDTH 578 0
DWIDTH 5 0
BBX 6 9 0 0
BITMAP
059700
4FBF70
3EDE50
698990
F7B6F3
F7CDF3
F98AF3
FFFFF3
6EFE90
ENDCHAR
STARTCHAR Eogonek
ENCODING 280
SWIDTH 578 0
DWIDTH 5 0
BBX 6 6 0 0
BITMAP
6C7890
FCBFF3
FC7BF3
FC68F3
FFF8F3
6EFA90
ENDCHAR
STARTCHAR eogonek
ENCODING 281
SWIDTH 578 0
DWIDTH 5 0
BBX 6 6 0 0
BITMAP
698990
F7B6F3
F7CDF3
F97AF3
FF8EF3
6EDD90
ENDCHAR
STARTCHAR Ecaron
ENCODING 282
SWIDTH 578 0
DWIDTH 5 0
BBX 6 9 0 0
BITMAP
08CD40
0AAB60
05BC10
6C7890
FCBFF3
FC7BF3
FC68F3
FFFFF3
6EFE90
ENDCHAR
STARTCHAR ecaron
ENCODING 283
SWIDTH 578 0
DWIDTH 5 0
BBX 6 9 0 0
BITMAP
0BCC20
0D8D20
08AB00
698990
F7B6F3
F7CDF3
F98AF3
FFFFF3
6EFE90
ENDCHAR
STARTCHAR Gcircumflex
ENCODING 284
SWIDTH 578 0
DWIDTH 5 0
BBX 6 10 0 0
BITMAP
002100
05CB00
0B9C20
0ACC30
6B8890
F8FFF3
F8E6D3
F986D3
FFFFF3
6EFE90
ENDCHAR
STARTCHAR gcircumflex
ENCODING 285
SWIDTH 578 0
DWIDTH 5 0
BBX 6 10 0 0
BITMAP
002100
05CB00
0B9C20
0ACC30
6B8890
F8FFF3
F8E6D3
F986D3
FFFFF3
6EFE90
ENDCHAR
STARTCHAR Gbreve
ENCODING 286
SWIDTH 578 0
DWIDTH 5 0
BBX 6 9 0 0
BITMAP
049710
2FED80
1DAD50
6B8890
F8FFF3
F8E6D3
F986D3
FFFFF3
6EFE90
ENDCHAR
STARTCHAR gbreve
ENCODING 287
SWIDTH 578 0
DWIDTH 5 0
BBX 6 9 0 0
BITMAP
059700
4EED70
2D9D40
6B8890
F8FFF3
F8E6D3
F986D3
FFFFF3
6EFE90
ENDCHAR
STARTCHAR Gdotaccent
ENCODING 288
SWIDTH 578 0
DWIDTH 5 0
BBX 6 9 0 0
BITMAP
059700
4FBF70
3EDE50
6B8890
F8FFF3
F8E6D3
F986D3
FFFFF3
6EFE90
ENDCHAR
STARTCHAR gdotaccent
ENCODING 289
SWIDTH 578 0
DWIDTH 5 0
BBX 6 9 0 0
BITMAP
059700
4FBF70
3EDE50
6B8890
F8FFF3
F8E6D3
F986D3
FFFFF3
6EFE90
ENDCHAR
STARTCHAR Gcommaaccent
ENCODING 290
SWIDTH 578 0
DWIDTH 5 0
BBX 6 6 0 0
BITMAP
6B8890
F8FFF3
F8E6D3
F986D3
FFBDF3
6EDE90
ENDCHAR
STARTCHAR gcommaaccent
ENCODING 291
SWIDTH 578 0
DWIDTH 5 0
BBX 6 6 0 0
BITMAP
6B8890
F8FFF3
F8E6D3
F986D3
FFBDF3
6EDE90
ENDCHAR
STARTCHAR Hcircumflex
ENCODING 292
SWIDTH 578 0
DWIDTH 5 0
BBX 6 10 0 0
BITMAP
002100
05CB00
0B9C20
0ACC30
6AFC70
F8EAC3
F797C3
F8FBC3
FFFFF3
6EFE90
ENDCHAR
STARTCHAR hcircumflex
ENCODING 293
SWIDTH 578 0
DWIDTH 5 0
BBX 6 10 0 0
BITMAP
002100
04CB00
0B9B30
0ACC30
6AFC70
F8EAC3
F797C3
F8FBC3
FFFFF3
6EFE90
ENDCHAR
STARTCHAR Hbar
ENCODING 294
SWIDTH 578 0
DWIDTH 5 0
BBX 6 9 0 0
BITMAP
049710
2E9C80
1DEE50
6AFC70
F8EAC3
F797C3
F8FBC3
FFFFF3
6EFE90
ENDCHAR
STARTCHAR hbar
ENCODING 295
SWIDTH 578 0
DWIDTH 5 0
BBX 6 6 0 0
BITMAP
6AFC70
F686B3
F797C3
F8FBC3
FFFFF3
6EFE90
ENDCHAR
STARTCHAR Itilde
ENCODING 296
SWIDTH 578 0
DWIDTH 5 0
BBX 6 9 0 0
BITMAP
05CB30
0FDDB0
0CAB80
6B7780
FF9EF3
FF9EF3
FC58E3
FFFFF3
6EFE90
ENDCHAR
STARTCHAR itilde
ENCODING 297
SWIDTH 578 0
DWIDTH 5 0
BBX 6 9 0 0
BITMAP
06CB30
1FDDB0
0CAB80
6B7780
FF9EF3
FF9EF3
FC58E3
FFFFF3
6EFE90
ENDCHAR
STARTCHAR Imacron
ENCODING 298
SWIDTH 578 0
DWIDTH 5 0
BBX 6 9 0 0
BITMAP
049810
1E9CA0
0CEE70
6B7780
FF9EF3
FF9EF3
FC58E3
FFFFF3
6EFE90
ENDCHAR
STARTCHAR imacron
ENCODING 299
SWIDTH 578 0
DWIDTH 5 0
BBX 6 9 0 0
BITMAP
049710
1E9C90
0CEE60
6B7780
FF9EF3
FF9EF3
FC58E3
FFFFF3
6EFE90
ENDCHAR
STARTCHAR Ibreve
ENCODING 300
SWIDTH 578 0
DWIDTH 5 0
BBX 6 9 0 0
BITMAP
039810
0EDDB0
0CAC70
6B7780
FF9EF3
FF9EF3
FC58E3
FFFFF3
6EFE90
ENDCHAR
STARTCHAR ibreve
ENCODING 301
SWIDTH 578 0
DWIDTH 5 0
BBX 6 9 0 0
BITMAP
039810
1FDDA0
0CAC70
6B7780
FF9EF3
FF9EF3
FC58E3
FFFFF3
6EFE90
ENDCHAR
STARTCHAR Iogonek
ENCODING 302
SWIDTH 578 0
DWIDTH 5 0
BBX 6 6 0 0
BITMAP
6B7780
FF9EF3
FF9EF3
FC58E3
FFF8F3
6EFA80
ENDCHAR
STARTCHAR iogonek
ENCODING 303
SWIDTH 578 0
DWIDTH 5 0
BBX 6 6 0 0
BITMAP
6B7780
FF9EF3
FF9EF3
FC58E3
FFF8F3
6EFB80
ENDCHAR
STARTCHAR Idotaccent
ENCODING 304
SWIDTH 578 0
DWIDTH 5 0
BBX 6 9 0 0
BITMAP
049710
2FBF80
1EDE60
6B7780
FF9EF3
FF9EF3
FC58E3
FFFFF3
6EFE90
ENDCHAR
STARTCHAR dotlessi
ENCODING 305
SWIDTH 578 0
DWIDTH 5 0
BBX 6 6 0 0
BITMAP
6B7780
FF9EF3
FF9EF3
FC58E3
FFFFF3
6EFE90
ENDCHAR
STARTCHAR IJ
ENCODING 306
SWIDTH 578 0
DWIDTH 5 0
BBX 6 6 0 0
BITMAP
56BD50
F8FDA3
F8FDA3
E4A7B3
EFFFF3
6EFE90
ENDCHAR
STARTCHAR ij
ENCODING 307
SWIDTH 578 0
DWIDTH 5 0
BBX 6 6 0 0
BITMAP
56BD50
F8FDA3
F8FDA3
E4A7B3
EFFFF3
6EFE90
ENDCHAR
STARTCHAR Jcircumflex
ENCODING 308
SWIDTH 578 0
DWIDTH 5 0
BBX 6 10 0 0
BITMAP
002100
04DC00
0AAB30
09CC40
6EFA90
FFF8F3
FFF8F3
FF89F3
FFFFF3
6EFE90
ENDCHAR
STARTCHAR jcircumflex
ENCODING 309
SWIDTH 578 0
DWIDTH 5 0
BBX 6 10 0 0
BITMAP
002100
04DC00
0AAB30
09CC40
6EFA90
FFF8F3
FFF8F3
FF89F3
FFFFF3
6EFE90
ENDCHAR
STARTCHAR Kcommaaccent
ENCODING 310
SWIDTH 578 0
DWIDTH 5 0
BBX 6 6 0 0
BITMAP
6CDB60
FC78F3
FC4BF3
FCB8D3
FFBDF3
6EDE90
ENDCHAR
STARTCHAR kcommaaccent
ENCODING 311
SWIDTH 578 0
DWIDTH 5 0
BBX 6 6 0 0
BITMAP
6CDB60
FC78F3
FC4BF3
FCB8D3
FFBDF3
6EDE90
ENDCHAR
STARTCHAR kgreenlandic
ENCODING 312
SWIDTH 578 0
DWIDTH 5 0
BBX 6 6 0 0
BITMAP
6CDB60
FC78F3
FC4BF3
FCB8D3
FFFFF3
6EFE90
ENDCHAR
STARTCHAR Lacute
ENCODING 313
SWIDTH 578 0
DWIDTH 5 0
BBX 6 9 0 0
BITMAP
04DC00
0A9C00
09D300
6EBE90
FF8FF3
FF8FF3
FF5AF3
FFFFF3
6EFE90
ENDCHAR
STARTCHAR lacute
ENCODING 314
SWIDTH 578 0
DWIDTH 5 0
BBX 6 9 0 0
BITMAP
04DC00
0A9C00
09D300
6EBE90
FF8FF3
FF8FF3
FF5AF3
FFFFF3
6EFE90
ENDCHAR
STARTCHAR Lcommaaccent
ENCODING 315
SWIDTH 578 0
DWIDTH 5 0
BBX 6 6 0 0
BITMAP
6EBE90
FF8FF3
FF8FF3
FF5AF3
FFBDF3
6EDE90
ENDCHAR
STARTCHAR lcommaaccent
ENCODING 316
SWIDTH 578 0
DWIDTH 5 0
BBX 6 6 0 0
BITMAP
6EBE90
FF8FF3
FF8FF3
FF5AF3
FFBDF3
6EDE90
ENDCHAR
STARTCHAR Lcaron
ENCODING 317
SWIDTH 578 0
DWIDTH 5 0
BBX 6 6 0 0
BITMAP
6EB890
FF8DF3
FF8FF3
FF5AF3
FFFFF3
6EFE90
ENDCHAR
STARTCHAR lcaron
ENCODING 318
SWIDTH 578 0
DWIDTH 5 0
BBX 6 6 0 0
BITMAP
6EB890
FF8DF3
FF8FF3
FF5AF3
FFFFF3
6EFE90
ENDCHAR
STARTCHAR Ldot
ENCODING 319
SWIDTH 578 0
DWIDTH 5 0
BBX 6 6 0 0
BITMAP
6EBE90
FF7CF3
FF8FF3
FF5AF3
FFFFF3
6EFE90
ENDCHAR
STARTCHAR ldot
ENCODING 320
SWIDTH 578 0
DWIDTH 5 0
BBX 6 6 0 0
BITMAP
6EBE90
FF7CF3
FF8FF3
FF5AF3
FFFFF3
6EFE90
ENDCHAR
STARTCHAR Lslash
ENCODING 321
SWIDTH 578 0
DWIDTH 5 0
BBX 6 6 0 0
BITMAP
6EBE90
FF6FF3
FC8FF3
FF5AF3
FFFFF3
6EFE90
ENDCHAR
STARTCHAR lslash
ENCODING 322
SWIDTH 578 0
DWIDTH 5 0
BBX 6 6 0 0
BITMAP
6EBE90
FF6FF3
FC8FF3
FF5AF3
FFFFF3
6EFE90
ENDCHAR
STARTCHAR Nacute
ENCODING 323
SWIDTH 578 0
DWIDTH 5 0
BBX 6 9 0 0
BITMAP
00DD30
04AD20
04D800
698790
F8F9E3
F8F9E3
F8F9E3
FFFFF3
6EFE90
ENDCHAR
STARTCHAR nacute
ENCODING 324
SWIDTH 578 0
DWIDTH 5 0
BBX 6 9 0 0
BITMAP
00DD30
04AD20
04D800
698790
F8F9E3
F8F9E3
F8F9E3
FFFFF3
6EFE90
ENDCHAR
STARTCHAR Ncommaaccent
ENCODING 325
SWIDTH 578 0
DWIDTH 5 0
BBX 6 6 0 0
BITMAP
698790
F8F9E3
F8F9E3
F8F9E3
FFBDF3
6EDE90
ENDCHAR
STARTCHAR ncommaaccent
ENCODING 326
SWIDTH 578 0
DWIDTH 5 0
BBX 6 6 0 0
BITMAP
698790
F8F9E3
F8F9E3
F8F9E3
FFBDF3
6EDE90
ENDCHAR
STARTCHAR Ncaron
ENCODING 327
SWIDTH 578 0
DWIDTH 5 0
BBX 6 9 0 0
BITMAP
0BCC20
0D8D20
08AB00
698790
F8F9E3
F8F9E3
F8F9E3
FFFFF3
6EFE90
ENDCHAR
STARTCHAR ncaron
ENCODING 328
SWIDTH 578 0
DWIDTH 5 0
BBX 6 9 0 0
BITMAP
0BCC20
0D8D20
08AB00
698790
F8F9E3
F8F9E3
F8F9E3
FFFFF3
6EFE90
ENDCHAR
STARTCHAR napostrophe
ENCODING 329
SWIDTH 578 0
DWIDTH 5 0
BBX 6 6 0 0
BITMAP
598790
97F9E3
F8F9E3
F8F9E3
FFFFF3
6EFE90
ENDCHAR
STARTCHAR Eng
ENCODING 330
SWIDTH 578 0
DWIDTH 5 0
BBX 6 6 0 0
BITMAP
698790
F8F9E3
F8F9E3
F8F9E3
FFE8E3
6EDB90
ENDCHAR
STARTCHAR eng
ENCODING 331
SWIDTH 578 0
DWIDTH 5 0
BBX 6 6 0 0
BITMAP
698790
F8F9E3
F8F9E3
F8F9E3
FFE8E3
6EDB90
ENDCHAR
STARTCHAR Omacron
ENCODING 332
SWIDTH 578 0
DWIDTH 5 0
BBX 6 9 0 0
BITMAP
049810
1E9CA0
0CEE70
6A8780
F8FBC3
F8FBC3
F986D3
FFFFF3
6EFE90
ENDCHAR
STARTCHAR omacron
ENCODING 333
SWIDTH 578 0
DWIDTH 5 0
BBX 6 9 0 0
BITMAP
049810
1E9CA0
0CEE70
6A8780
F8FBC3
F8FBC3
F986D3
FFFFF3
6EFE90
ENDCHAR
STARTCHAR Obreve
ENCODING 334
SWIDTH 578 0
DWIDTH 5 0
BBX 6 9 0 0
BITMAP
049810
1FDDA0
0CAC70
6A8780
F8FBC3
F8FBC3
F986D3
FFFFF3
6EFE90
ENDCHAR
STARTCHAR obreve
ENCODING 335
SWIDTH 578 0
DWIDTH 5 0
BBX 6 9 0 0
BITMAP
049810
1FDDA0
0CAC70
6A8780
F8FBC3
F8FBC3
F986D3
FFFFF3
6EFE90
ENDCHAR
STARTCHAR Ohungarumlaut
ENCODING 336
SWIDTH 578 0
DWIDTH 5 0
BBX 6 10 0 0
BITMAP
000110
00BEB0
05BAD1
07CC50
6A8780
F8FBC3
F8FBC3
F986D3
FFFFF3
6EFE90
ENDCHAR
STARTCHAR ohungarumlaut
ENCODING 337
SWIDTH 578 0
DWIDTH 5 0
BBX 6 10 0 0
BITMAP
000110
00BEB0
05BAD1
07CC50
6A8780
F8FBC3
F8FBC3
F986D3
FFFFF3
6EFE90
ENDCHAR
STARTCHAR OE
ENCODING 338
SWIDTH 578 0
DWIDTH 5 0
BBX 6 6 0 0
BITMAP
677770
F89EF3
F898E3
F658D3
FFFFF3
6EFE90
ENDCHAR
STARTCHAR oe
ENCODING 339
SWIDTH 578 0
DWIDTH 5 0
BBX 6 6 0 0
BITMAP
677770
F89EF3
F898E3
F658D3
FFFFF3
6EFE90
ENDCHAR
STARTCHAR Racute
ENCODING 340
SWIDTH 578 0
DWIDTH 5 0
BBX 6 9 0 0
BITMAP
00DD30
04AD20
04D800
6A8890
F8F8F3
F887F3
F8F8F3
FFFFF3
6EFE90
ENDCHAR
STARTCHAR racute
ENCODING 341
SWIDTH 578 0
DWIDTH 5 0
BBX 6 9 0 0
BITMAP
00DD30
04AD20
04D800
6A8890
F8F8F3
F887F3
F8F8F3
FFFFF3
6EFE90
ENDCHAR
STARTCHAR Rcommaaccent
ENCODING 342
SWIDTH 578 0
DWIDTH 5 0
BBX 6 6 0 0
BITMAP
6A8890
F8F8F3
F887F3
F8F8F3
FFBDF3
6EDE90
ENDCHAR
STARTCHAR rcommaaccent
ENCODING 343
SWIDTH 578 0
DWIDTH 5 0
BBX 6 6 0 0
BITMAP
6A8890
F8F8F3
F887F3
F8F8F3
FFBDF3
6EDE90
ENDCHAR
STARTCHAR Rcaron
ENCODING 344
SWIDTH 578 0
DWIDTH 5 0
BBX 6 9 0 0
BITMAP
0BCC20
0D8D20
08AB00
6A8890
F8F8F3
F887F3
F8F8F3
FFFFF3
6EFE90
ENDCHAR
STARTCHAR rcaron
ENCODING 345
SWIDTH 578 0
DWIDTH 5 0
BBX 6 9 0 0
BITMAP
0BCC20
0D8D20
08AB00
6A8890
F8F8F3
F887F3
F8F8F3
FFFFF3
6EFE90
ENDCHAR
STARTCHAR Sacute
ENCODING 346
SWIDTH 578 0
DWIDTH 5 0
BBX 6 9 0 0
BITMAP
00BD50
02CB50
02DB00
6B8890
F8EEF3
FE96E3
FD86E3
FFFFF3
6EFE90
ENDCHAR
STARTCHAR sacute
ENCODING 347
SWIDTH 578 0
DWIDTH 5 0
BBX 6 9 0 0
BITMAP
00BD50
02CB50
02DB00
6B8890
F8EEF3
FE96E3
FD86E3
FFFFF3
6EFE90
ENDCHAR
STARTCHAR Scircumflex
ENCODING 348
SWIDTH 578 0
DWIDTH 5 0
BBX 6 10 0 0
BITMAP
002100
03DC00
09AB50
08CC50
6B8890
F8EEF3
FE96E3
FD86E3
FFFFF3
6EFE90
ENDCHAR
STARTCHAR scircumflex
ENCODING 349
SWIDTH 578 0
DWIDTH 5 0
BBX 6 10 0 0
BITMAP
002100
03DC00
09AB50
08CC50
6B8890
F8EEF3
FE96E3
FD86E3
FFFFF3
6EFE90
ENDCHAR
STARTCHAR Scedilla
ENCODING 350
SWIDTH 578 0
DWIDTH 5 0
BBX 6 6 0 0
BITMAP
6B8890
F8EEF3
FE96E3
FD86E3
FF7FF3
6EBE90
ENDCHAR
STARTCHAR scedilla
ENCODING 351
SWIDTH 578 0
DWIDTH 5 0
BBX 6 6 0 0
BITMAP
6B8890
F8EEF3
FE96E3
FD86E3
FF7FF3
6EBE90
ENDCHAR
STARTCHAR Scaron
ENCODING 352
SWIDTH 578 0
DWIDTH 5 0
BBX 6 9 0 0
BITMAP
08CD50
09AA60
04BC20
6B8890
F8EEF3
FE96E3
FD86E3
FFFFF3
6EFE90
ENDCHAR
STARTCHAR scaron
ENCODING 353
SWIDTH 578 0
DWIDTH 5 0
BBX 6 9 0 0
BITMAP
08CD50
09AA60
04BC20
6B8890
F8EEF3
FE96E3
FD86E3
FFFFF3
6EFE90
ENDCHAR
STARTCHAR Tcommaaccent
ENCODING 354
SWIDTH 578 0
DWIDTH 5 0
BBX 6 6 0 0
BITMAP
6B7780
FF9EF3
FF9EF3
FF9EF3
FFBDF3
6EDE90
ENDCHAR
STARTCHAR tcommaaccent
ENCODING 355
SWIDTH 578 0
DWIDTH 5 0
BBX 6 6 0 0
BITMAP
6B7780
FF9EF3
FF9EF3
FF9EF3
FFBDF3
6EDE90
ENDCHAR
STARTCHAR Tcaron
ENCODING 356
SWIDTH 578 0
DWIDTH 5 0
BBX 6 9 0 0
BITMAP
09CD40
0B9B40
06AC10
6B7780
FF9EF3
FF9EF3
FF9EF3
FFFFF3
6EFE90
ENDCHAR
STARTCHAR tcaron
ENCODING 357
SWIDTH 578 0
DWIDTH 5 0
BBX 6 6 0 0
BITMAP
6B7780
FF97E3
FF9DF3
FF9EF3
FFFFF3
6EFE90
ENDCHAR
STARTCHAR Tbar
ENCODING 358
SWIDTH 578 0
DWIDTH 5 0
BBX 6 6 0 0
BITMAP
6B7780
FF9EF3
FF5AF3
FF9EF3
FFFFF3
6EFE90
ENDCHAR
STARTCHAR tbar
ENCODING 359
SWIDTH 578 0
DWIDTH 5 0
BBX 6 6 0 0
BITMAP
6B7780
FF9EF3
FF5AF3
FF9EF3
FFFFF3
6EFE90
ENDCHAR
STARTCHAR Utilde
ENCODING 360
SWIDTH 578 0
DWIDTH 5 0
BBX 6 9 0 0
BITMAP
06CB30
1FDDB0
0CAB80
6AFC70
F8FAD3
F8FAD3
F886E3
FFFFF3
6EFE90
ENDCHAR
STARTCHAR utilde
ENCODING 361
SWIDTH 578 0
DWIDTH 5 0
BBX 6 9 0 0
BITMAP
06CB30
1FDDB0
0CAB80
6AFC70
F8FAD3
F8FAD3
F886E3
FFFFF3
6EFE90
ENDCHAR
STARTCHAR Umacron
ENCODING 362
SWIDTH 578 0
DWIDTH 5 0
BBX 6 9 0 0
BITMAP
039810
1E9CA0
0CEE70
6AFC70
F8FAD3
F8FAD3
F886E3
FFFFF3
6EFE90
ENDCHAR
STARTCHAR umacron
ENCODING 363
SWIDTH 578 0
DWIDTH 5 0
BBX 6 9 0 0
BITMAP
039810
1E9CA0
0CEE70
6AFC70
F8FAD3
F8FAD3
F886E3
FFFFF3
6EFE90
ENDCHAR
STARTCHAR Ubreve
ENCODING 364
SWIDTH 578 0
DWIDTH 5 0
BBX 6 9 0 0
BITMAP
039810
1FDDA0
0CAC70
6AFC70
F8FAD3
F8FAD3
F886E3
FFFFF3
6EFE90
ENDCHAR
STARTCHAR ubreve
ENCODING 365
SWIDTH 578 0
DWIDTH 5 0
BBX 6 9 0 0
BITMAP
039810
1FDDA0
0CAC70
6AFC70
F8FAD3
F8FAD3
F886E3
FFFFF3
6EFE90
ENDCHAR
STARTCHAR Uring
ENCODING 366
SWIDTH 578 0
DWIDTH 5 0
BBX 6 9 0 0
BITMAP
03B900
0C7A50
0BBD40
6AFC70
F8FAD3
F8FAD3
F886E3
FFFFF3
6EFE90
ENDCHAR
STARTCHAR uring
ENCODING 367
SWIDTH 578 0
DWIDTH 5 0
BBX 6 9 0 0
BITMAP
03B900
0C7A60
0BBD50
6AFC70
F8FAD3
F8FAD3
F886E3
FFFFF3
6EFE90
ENDCHAR
STARTCHAR Uhungarumlaut
ENCODING 368
SWIDTH 581 0
DWIDTH 5 0
BBX 6 10 0 0
BITMAP
000110
00BEC0
04BAD1
06CC50
6AFC70
F8FAD3
F8FAD3
F886E3
FFFFF3
6EFE90
ENDCHAR
STARTCHAR uhungarumlaut
ENCODING 369
SWIDTH 582 0
DWIDTH 5 0
BBX 6 10 0 0
BITMAP
000110
00BEC0
04BAD1
06CC50
6AFC70
F8FAD3
F8FAD3
F886E3
FFFFF3
6EFE90
ENDCHAR
STARTCHAR Uogonek
ENCODING 370
SWIDTH 578 0
DWIDTH 5 0
BBX 6 6 0 0
BITMAP
6AFC70
F8FAD3
F8FAD3
F886E3
FF9EF3
6ECC90
ENDCHAR
STARTCHAR uogonek
ENCODING 371
SWIDTH 578 0
DWIDTH 5 0
BBX 6 6 0 0
BITMAP
6AFC70
F8FAD3
F8FAD3
F886E3
FF9EF3
6ECC90
ENDCHAR
STARTCHAR Wcircumflex
ENCODING 372
SWIDTH 578 0
DWIDTH 5 0
BBX 6 10 0 0
BITMAP
002100
05CB00
0B9C20
0ACC30
6ABE50
F85BA3
F867B3
F783D3
FFFFF3
6EFE90
ENDCHAR
STARTCHAR wcircumflex
ENCODING 373
SWIDTH 578 0
DWIDTH 5 0
BBX 6 10 0 0
BITMAP
002100
05CB00
0B9C20
0ACC30
6ABE50
F85BA3
F867B3
F783D3
FFFFF3
6EFE90
ENDCHAR
STARTCHAR Ycircumflex
ENCODING 374
SWIDTH 578 0
DWIDTH 5 0
BBX 6 10 0 0
BITMAP
002100
04DC00
0AAB40
09CC40
6AEA80
FE87F3
FF6BF3
FF8FF3
FFFFF3
6EFE90
ENDCHAR
STARTCHAR ycircumflex
ENCODING 375
SWIDTH 578 0
DWIDTH 5 0
BBX 6 10 0 0
BITMAP
002100
04DC00
0AAB40
09CC40
6AEA80
FE87F3
FF6BF3
FF8FF3
FFFFF3
6EFE90
ENDCHAR
STARTCHAR Ydieresis
ENCODING 376
SWIDTH 578 0
DWIDTH 5 0
BBX 6 9 0 0
BITMAP
028710
0CBB70
08CB40
6AEA80
FE87F3
FF6BF3
FF8FF3
FFFFF3
6EFE90
ENDCHAR
STARTCHAR Zacute
ENCODING 377
SWIDTH 578 0
DWIDTH 5 0
BBX 6 9 0 0
BITMAP
02DD10
079D10
07D500
6C8890
FFDAF3
FF7FF3
FC59F3
FFFFF3
6EFE90
ENDCHAR
STARTCHAR zacute
ENCODING 378
SWIDTH 578 0
DWIDTH 5 0
BBX 6 9 0 0
BITMAP
02DD10
079D10
07D500
6C8890
FFDAF3
FF7FF3
FC59F3
FFFFF3
6EFE90
ENDCHAR
STARTCHAR Zdotaccent
ENCODING 379
SWIDTH 578 0
DWIDTH 5 0
BBX 6 9 0 0
BITMAP
059700
4FBF70
3EDE50
6C8890
FFDAF3
FF7FF3
FC59F3
FFFFF3
6EFE90
ENDCHAR
STARTCHAR zdotaccent
ENCODING 380
SWIDTH 578 0
DWIDTH 5 0
BBX 6 9 0 0
BITMAP
059700
4FBF70
3EDE50
6C8890
FFDAF3
FF7FF3
FC59F3
FFFFF3
6EFE90
ENDCHAR
STARTCHAR Zcaron
ENCODING 381
SWIDTH 578 0
DWIDTH 5 0
BBX 6 9 0 0
BITMAP
0BCD20
0C8C30
07AB00
6C8890
FFDAF3
FF7FF3
FC59F3
FFFFF3
6EFE90
ENDCHAR
STARTCHAR zcaron
ENCODING 382
SWIDTH 578 0
DWIDTH 5 0
BBX 6 9 0 0
BITMAP
0BCD20
0C8C30
07AB00
6C8890
FFDAF3
FF7FF3
FC59F3
FFFFF3
6EFE90
ENDCHAR
STARTCHAR longs
ENCODING 383
SWIDTH 578 0
DWIDTH 5 0
BBX 6 6 0 0
BITMAP
6EAC90
FAEAE3
FAAAE3
FFBEF3
FFFFF3
6EFE90
ENDCHAR
STARTCHAR florin
ENCODING 402
SWIDTH 578 0
DWIDTH 5 0
BBX 6 6 0 0
BITMAP
6EAB90
FF8FF3
FE5EF3
FF8FF3
FC9FF3
6EFE90
ENDCHAR
STARTCHAR uni01CD
ENCODING 461
SWIDTH 578 0
DWIDTH 5 0
BBX 6 9 0 0
BITMAP
0ACD30
0B9B40
06AC10
6C8990
F9E8F3
F795F3
F7FAD3
FFFFF3
6EFE90
ENDCHAR
STARTCHAR uni01CE
ENCODING 462
SWIDTH 578 0
DWIDTH 5 0
BBX 6 9 0 0
BITMAP
09CD40
0AAB50
05BC10
6B8990
FFF9F3
F886F3
F886F3
FFFFF3
6EFE90
ENDCHAR
STARTCHAR uni01CF
ENCODING 463
SWIDTH 578 0
DWIDTH 5 0
BBX 6 9 0 0
BITMAP
08CD50
09AA60
04BC20
6B7780
FF9EF3
FF9EF3
FC58E3
FFFFF3
6EFE90
ENDCHAR
STARTCHAR uni01D0
ENCODING 464
SWIDTH 578 0
DWIDTH 5 0
BBX 6 9 0 0
BITMAP
08CD40
0AAB60
05BC10
6B7780
FF9EF3
FF9EF3
FC58E3
FFFFF3
6EFE90
ENDCHAR
STARTCHAR uni01D1
ENCODING 465
SWIDTH 578 0
DWIDTH 5 0
BBX 6 9 0 0
BITMAP
09CD40
0AAB50
05AC10
6A8780
F8FBC3
F8FBC3
F986D3
FFFFF3
6EFE90
ENDCHAR
STARTCHAR uni01D3
ENCODING 467
SWIDTH 578 0
DWIDTH 5 0
BBX 6 9 0 0
BITMAP
08CD40
0AAB60
05BC10
6AFC70
F8FAD3
F8FAD3
F886E3
FFFFF3
6EFE90
ENDCHAR
STARTCHAR uni01D4
ENCODING 468
SWIDTH 578 0
DWIDTH 5 0
BBX 6 9 0 0
BITMAP
08CD40
0AAB60
05BC10
6AFC70
F8FAD3
F8FAD3
F886E3
FFFFF3
6EFE90
ENDCHAR
STARTCHAR uni0200
ENCODING 512
SWIDTH 578 0
DWIDTH 5 0
BBX 6 10 0 0
BITMAP
011000
4EE500
6BAD00
0ACC20
6C8990
F9E8F3
F795F3
F7FAD3
FFFFF3
6EFE90
ENDCHAR
STARTCHAR uni0201
ENCODING 513
SWIDTH 578 0
DWIDTH 5 0
BBX 6 10 0 0
BITMAP
011000
4EE500
6BAD00
0ACC20
6B8990
FFF9F3
F886F3
F886F3
FFFFF3
6EFE90
ENDCHAR
STARTCHAR uni0202
ENCODING 514
SWIDTH 578 0
DWIDTH 5 0
BBX 6 9 0 0
BITMAP
014300
1EEF70
1E9B80
6ECD90
F9E8F3
F795F3
F7FAD3
FFFFF3
6EFE90
ENDCHAR
STARTCHAR uni0203
ENCODING 515
SWIDTH 578 0
DWIDTH 5 0
BBX 6 9 0 0
BITMAP
014300
1EEF70
1E9B80
6ECD90
FFF9F3
F886F3
F886F3
FFFFF3
6EFE90
ENDCHAR
STARTCHAR uni0204
ENCODING 516
SWIDTH 578 0
DWIDTH 5 0
BBX 6 10 0 0
BITMAP
011000
4EE500
6BAD00
0ACC20
6C7890
FCBFF3
FC7BF3
FC68F3
FFFFF3
6EFE90
ENDCHAR
STARTCHAR uni0205
ENCODING 517
SWIDTH 578 0
DWIDTH 5 0
BBX 6 10 0 0
BITMAP
011000
4EE500
6BAD00
0ACC20
698990
F7B6F3
F7CDF3
F98AF3
FFFFF3
6EFE90
ENDCHAR
STARTCHAR uni0206
ENCODING 518
SWIDTH 578 0
DWIDTH 5 0
BBX 6 9 0 0
BITMAP
014300
1EEF70
1E9B80
6ECC90
FCBFF3
FC7BF3
FC68F3
FFFFF3
6EFE90
ENDCHAR
STARTCHAR uni0207
ENCODING 519
SWIDTH 578 0
DWIDTH 5 0
BBX 6 9 0 0
BITMAP
014300
1EEF70
1E9B80
6CCD90
F7B6F3
F7CDF3
F98AF3
FFFFF3
6EFE90
ENDCHAR
STARTCHAR uni0208
ENCODING 520
SWIDTH 578 0
DWIDTH 5 0
BBX 6 10 0 0
BITMAP
011000
4EE500
6BAD00
0ACC20
6B7780
FF9EF3
FF9EF3
FC58E3
FFFFF3
6EFE90
ENDCHAR
STARTCHAR uni0209
ENCODING 521
SWIDTH 578 0
DWIDTH 5 0
BBX 6 10 0 0
BITMAP
011000
4EE500
6BAD00
0ACC20
6B7780
FF9EF3
FF9EF3
FC58E3
FFFFF3
6EFE90
ENDCHAR
STARTCHAR uni020A
ENCODING 522
SWIDTH 578 0
DWIDTH 5 0
BBX 6 9 0 0
BITMAP
014300
1EEF70
1E9B80
6EBB80
FF9EF3
FF9EF3
FC58E3
FFFFF3
6EFE90
ENDCHAR
STARTCHAR uni020B
ENCODING 523
SWIDTH 578 0
DWIDTH 5 0
BBX 6 9 0 0
BITMAP
014300
1EEF70
1E9B80
6EBB80
FF9EF3
FF9EF3
FC58E3
FFFFF3
6EFE90
ENDCHAR
STARTCHAR uni020C
ENCODING 524
SWIDTH 578 0
DWIDTH 5 0
BBX 6 10 0 0
BITMAP
011000
4EE500
6BAD00
0ACC20
6A8780
F8FBC3
F8FBC3
F986D3
FFFFF3
6EFE90
ENDCHAR
STARTCHAR uni020D
ENCODING 525
SWIDTH 578 0
DWIDTH 5 0
BBX 6 10 0 0
BITMAP
011000
4EE500
6BAD00
0ACC20
6A8780
F8FBC3
F8FBC3
F986D3
FFFFF3
6EFE90
ENDCHAR
STARTCHAR uni020E
ENCODING 526
SWIDTH 578 0
DWIDTH 5 0
BBX 6 9 0 0
BITMAP
014300
1EEF70
1E9B80
6DCB80
F8FBC3
F8FBC3
F986D3
FFFFF3
6EFE90
ENDCHAR
STARTCHAR uni020F
ENCODING 527
SWIDTH 578 0
DWIDTH 5 0
BBX 6 9 0 0
BITMAP
014300
1EEF70
1E9B80
6DCB80
F8FBC3
F8FBC3
F986D3
FFFFF3
6EFE90
ENDCHAR
STARTCHAR uni0210
ENCODING 528
SWIDTH 578 0
DWIDTH 5 0
BBX 6 10 0 0
BITMAP
011000
4EE500
6BAD00
0ACC20
6A8890
F8F8F3
F887F3
F8F8F3
FFFFF3
6EFE90
ENDCHAR
STARTCHAR uni0211
ENCODING 529
SWIDTH 578 0
DWIDTH 5 0
BBX 6 10 0 0
BITMAP
011000
4EE500
6BAD00
0ACC20
6A8890
F8F8F3
F887F3
F8F8F3
FFFFF3
6EFE90
ENDCHAR
STARTCHAR uni0212
ENCODING 530
SWIDTH 578 0
DWIDTH 5 0
BBX 6 9 0 0
BITMAP
014300
1EEF70
1E9B80
6CCC90
F8F8F3
F887F3
F8F8F3
FFFFF3
6EFE90
ENDCHAR
STARTCHAR uni0213
ENCODING 531
SWIDTH 578 0
DWIDTH 5 0
BBX 6 9 0 0
BITMAP
014300
1EEF70
1E9B80
6CCC90
F8F8F3
F887F3
F8F8F3
FFFFF3
6EFE90
ENDCHAR
STARTCHAR uni0214
ENCODING 532
SWIDTH 578 0
DWIDTH 5 0
BBX 6 10 0 0
BITMAP
011000
4EE500
6BAD00
0ACC20
6AFC70
F8FAD3
F8FAD3
F886E3
FFFFF3
6EFE90
ENDCHAR
STARTCHAR uni0215
ENCODING 533
SWIDTH 578 0
DWIDTH 5 0
BBX 6 10 0 0
BITMAP
011000
4EE500
6BAD00
0ACC20
6AFC70
F8FAD3
F8FAD3
F886E3
FFFFF3
6EFE90
ENDCHAR
STARTCHAR uni0216
ENCODING 534
SWIDTH 578 0
DWIDTH 5 0
BBX 6 9 0 0
BITMAP
014300
1EEF70
1E9B80
6CFF80
F8FAD3
F8FAD3
F886E3
FFFFF3
6EFE90
ENDCHAR
STARTCHAR uni0217
ENCODING 535
SWIDTH 578 0
DWIDTH 5 0
BBX 6 9 0 0
BITMAP
014300
1EEF70
1E9B80
6CFF80
F8FAD3
F8FAD3
F886E3
FFFFF3
6EFE90
ENDCHAR
STARTCHAR uni0218
ENCODING 536
SWIDTH 578 0
DWIDTH 5 0
BBX 6 6 0 0
BITMAP
6B8890
F8EEF3
FE96E3
FD86E3
FFAEF3
6EDE90
ENDCHAR
STARTCHAR uni0219
ENCODING 537
SWIDTH 578 0
DWIDTH 5 0
BBX 6 6 0 0
BITMAP
6B8890
F8EEF3
FE96E3
FD86E3
FFAEF3
6EDE90
ENDCHAR
STARTCHAR uni021A
ENCODING 538
SWIDTH 578 0
DWIDTH 5 0
BBX 6 6 0 0
BITMAP
6B7780
FF9EF3
FF9EF3
FF9EF3
FFBDF3
6EDE90
ENDCHAR
STARTCHAR uni021B
ENCODING 539
SWIDTH 578 0
DWIDTH 5 0
BBX 6 6 0 0
BITMAP
6B7780
FF9EF3
FF9EF3
FF9EF3
FFBDF3
6EDE90
ENDCHAR
STARTCHAR circumflex
ENCODING 710
SWIDTH 355 0
DWIDTH 3 0
BBX 4 4 0 0
BITMAP
0300
6C90
C8D1
BCB2
ENDCHAR
STARTCHAR caron
ENCODING 711
SWIDTH 355 0
DWIDTH 3 0
BBX 4 3 0 0
BITMAP
BCC2
D8D2
8AB0
ENDCHAR
STARTCHAR breve
ENCODING 728
SWIDTH 428 0
DWIDTH 4 0
BBX 4 3 0 0
BITMAP
3882
EDDC
BBB8
ENDCHAR
STARTCHAR dotaccent
ENCODING 729
SWIDTH 428 0
DWIDTH 4 0
BBX 4 3 0 0
BITMAP
3882
EDEC
CDDA
ENDCHAR
STARTCHAR ring
ENCODING 730
SWIDTH 368 0
DWIDTH 3 0
BBX 4 3 0 0
BITMAP
5B80
D8A4
DAD3
ENDCHAR
STARTCHAR ogonek
ENCODING 731
SWIDTH 101 0
DWIDTH 1 0
BBX 1 2 0 -2
BITMAP
70
40
ENDCHAR
STARTCHAR tilde
ENCODING 732
SWIDTH 428 0
DWIDTH 4 0
BBX 4 3 0 0
BITMAP
5CC3
EDDC
BAA9
ENDCHAR
STARTCHAR hungarumlaut
ENCODING 733
SWIDTH 419 0
DWIDTH 4 0
BBX 4 4 0 0
BITMAP
0110
3DE7
BAA8
BBB1
ENDCHAR
STARTCHAR uni030F
ENCODING 783
SWIDTH 419 0
DWIDTH 4 0
BBX 4 4 0 0
BITMAP
1110
9ED1
CAA8
2BB9
ENDCHAR
STARTCHAR mu
ENCODING 956
SWIDTH 578 0
DWIDTH 5 0
BBX 6 6 0 0
BITMAP
6AFC70
F8FAD3
F8FAD3
F786E3
FDFFF3
6EFE90
ENDCHAR
STARTCHAR pi
ENCODING 960
SWIDTH 578 0
DWIDTH 5 0
BBX 6 6 0 0
BITMAP
6BBA90
DA8AA3
BC99A3
E8EBA3
FDABF3
6EFE90
ENDCHAR
STARTCHAR uni1E60
ENCODING 7776
SWIDTH 578 0
DWIDTH 5 0
BBX 6 9 0 0
BITMAP
039810
0ECEB0
0DDE90
6B8890
F8EEF3
FE96E3
FD86E3
FFFFF3
6EFE90
ENDCHAR
STARTCHAR uni1E8E
ENCODING 7822
SWIDTH 578 0
DWIDTH 5 0
BBX 6 9 0 0
BITMAP
049810
1FCEA0
0DDE80
6AEA80
FE87F3
FF6BF3
FF8FF3
FFFFF3
6EFE90
ENDCHAR
STARTCHAR uni1E8F
ENCODING 7823
SWIDTH 578 0
DWIDTH 5 0
BBX 6 9 0 0
BITMAP
049810
1FCEA0
0DDE80
6AEA80
FE87F3
FF6BF3
FF8FF3
FFFFF3
6EFE90
ENDCHAR
STARTCHAR uni1EBC
ENCODING 7868
SWIDTH 578 0
DWIDTH 5 0
BBX 6 9 0 0
BITMAP
06CB30
1FDDB0
0CAB80
6C7890
FCBFF3
FC7BF3
FC68F3
FFFFF3
6EFE90
ENDCHAR
STARTCHAR uni1EF8
ENCODING 7928
SWIDTH 578 0
DWIDTH 5 0
BBX 6 9 0 0
BITMAP
06CB20
1FDDA0
0CAB80
6AEA80
FE87F3
FF6BF3
FF8FF3
FFFFF3
6EFE90
ENDCHAR
STARTCHAR uni1EF9
ENCODING 7929
SWIDTH 578 0
DWIDTH 5 0
BBX 6 9 0 0
BITMAP
06CB20
1FDDA0
0CAB80
6AEA80
FE87F3
FF6BF3
FF8FF3
FFFFF3
6EFE90
ENDCHAR
STARTCHAR endash
ENCODING 8211
SWIDTH 428 0
DWIDTH 4 0
BBX 4 6 0 0
BITMAP
6EE5
F8AC
FFFD
FFFD
FFFC
6ED5
ENDCHAR
STARTCHAR emdash
ENCODING 8212
SWIDTH 428 0
DWIDTH 4 0
BBX 4 6 0 0
BITMAP
7EE5
7886
FFFD
FFFD
FFFC
6ED5
ENDCHAR
STARTCHAR quoteleft
ENCODING 8216
SWIDTH 428 0
DWIDTH 4 0
BBX 4 6 0 0
BITMAP
6CC5
FCDC
FFFD
FFFD
FFFC
6ED5
ENDCHAR
STARTCHAR quoteright
ENCODING 8217
SWIDTH 428 0
DWIDTH 4 0
BBX 4 6 0 0
BITMAP
6BB5
FEEC
FFFD
FFFD
FFFC
6ED5
ENDCHAR
STARTCHAR quotesinglbase
ENCODING 8218
SWIDTH 428 0
DWIDTH 4 0
BBX 4 6 0 0
BITMAP
6EE5
FFFC
FFFD
FCDD
FEEC
6ED5
ENDCHAR
STARTCHAR quotedblleft
ENCODING 8220
SWIDTH 428 0
DWIDTH 4 0
BBX 4 6 0 0
BITMAP
6BA5
FAAC
FFFD
FFFD
FFFC
6ED5
ENDCHAR
STARTCHAR quotedblright
ENCODING 8221
SWIDTH 428 0
DWIDTH 4 0
BBX 4 6 0 0
BITMAP
6875
FDDC
FFFD
FFFD
FFFC
6ED5
ENDCHAR
STARTCHAR quotedblbase
ENCODING 8222
SWIDTH 428 0
DWIDTH 4 0
BBX 4 6 0 0
BITMAP
6EE5
FFFC
FFFD
F99D
FCCC
6ED5
ENDCHAR
STARTCHAR dagger
ENCODING 8224
SWIDTH 578 0
DWIDTH 5 0
BBX 6 6 0 0
BITMAP
6EBE90
FF5AF3
FF9EF3
FF9EF3
FFFFF3
6EFE90
ENDCHAR
STARTCHAR daggerdbl
ENCODING 8225
SWIDTH 578 0
DWIDTH 5 0
BBX 6 6 0 0
BITMAP
6EBE90
FF5AF3
FF8DF3
FF6BF3
FFFFF3
6EFE90
ENDCHAR
STARTCHAR bullet
ENCODING 8226
SWIDTH 578 0
DWIDTH 5 0
BBX 6 6 0 0
BITMAP
6ECD90
F800E3
F700E3
FA34F3
FFFFF3
6EFE90
ENDCHAR
STARTCHAR ellipsis
ENCODING 8230
SWIDTH 578 0
DWIDTH 5 0
BBX 6 6 0 0
BITMAP
6EFE90
FFFFF3
FFFFF3
FAAAF3
FFFFF3
6EFE90
ENDCHAR
STARTCHAR perthousand
ENCODING 8240
SWIDTH 640 0
DWIDTH 6 0
BBX 6 6 0 0
BITMAP
4ACFD4
768FFB
FB7998
FA9786
FFFFFB
6EFFD4
ENDCHAR
STARTCHAR guilsinglleft
ENCODING 8249
SWIDTH 578 0
DWIDTH 5 0
BBX 6 6 0 0
BITMAP
6EFD90
FFBCF3
FF8FF3
FFBCF3
FFFEF3
6EFE90
ENDCHAR
STARTCHAR guilsinglright
ENCODING 8250
SWIDTH 578 0
DWIDTH 5 0
BBX 6 6 0 0
BITMAP
6EEE90
FF9FF3
FFDAF3
FF9FF3
FFEFF3
6EFE90
ENDCHAR
STARTCHAR fraction
ENCODING 8260
SWIDTH 428 0
DWIDTH 4 0
BBX 4 6 0 0
BITMAP
6DA5
FCBC
FADD
F8FD
FFFC
6ED5
ENDCHAR
STARTCHAR Euro
ENCODING 8364
SWIDTH 578 0
DWIDTH 5 0
BBX 6 6 0 0
BITMAP
6A8A90
E59FF3
E59FF3
F88AF3
FFFFF3
6EFE90
ENDCHAR
STARTCHAR trademark
ENCODING 8482
SWIDTH 578 0
DWIDTH 5 0
BBX 6 6 0 0
BITMAP
6EFE90
FDDEF3
F975F3
FEEEF3
FFFFF3
6EFE90
ENDCHAR
STARTCHAR product
ENCODING 8719
SWIDTH 578 0
DWIDTH 5 0
BBX 6 6 0 0
BITMAP
6BBA90
DC89A3
BF7AA3
EBBEA3
FDABF3
6EFE90
ENDCHAR
STARTCHAR minus
ENCODING 8722
SWIDTH 428 0
DWIDTH 4 0
BBX 4 6 0 0
BITMAP
6EE5
F8AC
FFFD
FFFD
FFFC
6ED5
ENDCHAR
STARTCHAR notequal
ENCODING 8800
SWIDTH 578 0
DWIDTH 5 0
BBX 6 6 0 0
BITMAP
6EFD90
FB58F3
FA49F3
FFFFF3
FFFFF3
6EFE90
ENDCHAR
STARTCHAR uni2706
ENCODING 9990
SWIDTH 578 0
DWIDTH 5 0
BBX 6 6 0 0
BITMAP
6ECD90
FC99F3
F8BFF3
FE5BF3
FFECF3
6EFE90
ENDCHAR
STARTCHAR uni2708
ENCODING 9992
SWIDTH 578 0
DWIDTH 5 0
BBX 6 6 0 0
BITMAP
337430
335312
21B403
205003
304002
337330
ENDCHAR
STARTCHAR uniF6D6
ENCODING 63190
SWIDTH 419 0
DWIDTH 4 0
BBX 4 4 0 0
BITMAP
1110
9ED1
CAA8
2BB9
ENDCHAR
STARTCHAR uFFFF2
ENCODING 1048562
SWIDTH 578 0
DWIDTH 5 0
BBX 6 6 0 0
BITMAP
335230
307002
25A713
207103
304002
337330
ENDCHAR
STARTCHAR uFFFF3
ENCODING 1048563
SWIDTH 578 0
DWIDTH 5 0
BBX 6 6 0 0
BITMAP
335330
329702
20B503
228703
302002
333330
ENDCHAR
STARTCHAR uFFFF4
ENCODING 1048564
SWIDTH 578 0
DWIDTH 5 0
BBX 6 6 0 0
BITMAP
6EEE90
FC9BF3
FADBE3
FCAAF3
FFFFF3
6EFE90
ENDCHAR
STARTCHAR uFFFF5
ENCODING 1048565
SWIDTH 578 0
DWIDTH 5 0
BBX 6 6 0 0
BITMAP
6EAD90
FCACE3
FE4BF3
FFAFF3
FFBFF3
6EBE90
ENDCHAR
STARTCHAR uFFFF6
ENCODING 1048566
SWIDTH 578 0
DWIDTH 5 0
BBX 6 6 0 0
BITMAP
6EDE90
FF8FF3
FA58E3
FF8EF3
FFBFF3
6EBE90
ENDCHAR
STARTCHAR uFFFF8
ENCODING 1048568
SWIDTH 578 0
DWIDTH 5 0
BBX 6 6 0 0
BITMAP
6ECE90
FE5AF3
F948F3
F803F3
FF7EF3
6EAE90
ENDCHAR
STARTCHAR uFFFF9
ENCODING 1048569
SWIDTH 578 0
DWIDTH 5 0
BBX 6 6 0 0
BITMAP
334230
336402
252413
235503
300002
333330
ENDCHAR
STARTCHAR uFFFFB
ENCODING 1048571
SWIDTH 578 0
DWIDTH 5 0
BBX 6 6 0 0
BITMAP
6EBE90
FB69F3
FE3CF3
FD8AF3
FFEFF3
6EFE90
ENDCHAR
STARTCHAR uFFFFC
ENCODING 1048572
SWIDTH 578 0
DWIDTH 5 0
BBX 6 6 0 0
BITMAP
6C9A90
D697B3
FD7AF3
FFBFF3
FFFFF3
6EFE90
ENDCHAR
STARTCHAR uFFFFD
ENCODING 1048573
SWIDTH 578 0
DWIDTH 5 0
BBX 6 6 0 0
BITMAP
6EAD90
F703F3
F948F3
FE4AF3
FF9FF3
6EAE90
ENDCHAR
STARTCHAR uFFFFE
ENCODING 1048574
SWIDTH 578 0
DWIDTH 5 0
BBX 6 6 0 0
BITMAP
6ADA70
D96CA3
DA6DA3
FACAD3
FFFFF3
6EFE90
ENDCHAR
STARTCHAR uFFFFF
ENCODING 1048575
SWIDTH 578 0
DWIDTH 5 0
BBX 6 6 0 0
BITMAP
337430
38FC02
26B703
21B503
306002
337330
ENDCHAR
STARTCHAR .notdef
ENCODING -1
SWIDTH 1000 0
DWIDTH 9 0
BBX 1 1 0 0
BITMAP
00
ENDCHAR
STARTCHAR glyph1
ENCODING -1
SWIDTH 0 0
DWIDTH 0 0
BBX 1 1 0 0
BITMAP
00
ENDCHAR
ENDFONT
